<svg xmlns="http://www.w3.org/2000/svg" viewBox="0 0 28 28"><defs><style>.cls-1{fill:#cce3f1;}.cls-2{fill:#0071ba;}.cls-3{fill:none;}</style></defs><title>EDIT_ON</title><g id="Layer_2" data-name="Layer 2"><g id="Layer_3" data-name="Layer 3"><path class="cls-1" d="M22.37.85.5,22.72V27.5H5.28L27.15,5.63a1.19,1.19,0,0,0,0-1.69L24.06.85A1.19,1.19,0,0,0,22.37.85Z"/><path class="cls-2" d="M27.5,3.59,24.41.5A1.74,1.74,0,0,0,22,.5l-22,22V28H5.49l22-22a1.7,1.7,0,0,0,.5-1.2A1.68,1.68,0,0,0,27.5,3.59ZM5.07,27H1V22.93L19.65,4.27l4,4a.29.29,0,0,0,.13.08ZM26.8,5.28,24.41,7.66a.51.51,0,0,0-.09-.13l-4-4L22.72,1.2a.73.73,0,0,1,1,0L26.8,4.29a.72.72,0,0,1,.2.5A.7.7,0,0,1,26.8,5.28Z"/><rect class="cls-3" width="28" height="28"/></g></g></svg>