<svg xmlns="http://www.w3.org/2000/svg" viewBox="0 0 23.94 32"><defs><style>.cls-1{fill:#0071ba;}</style></defs><title>Notification</title><g id="Layer_2" data-name="Layer 2"><g id="Layer_3" data-name="Layer 3"><path class="cls-1" d="M14.47,27.5a1,1,0,0,0-1,1,1.5,1.5,0,0,1-3,0,1,1,0,0,0-2,0,3.5,3.5,0,0,0,7,0A1,1,0,0,0,14.47,27.5Z"/><path class="cls-1" d="M23.24,21.22a10.57,10.57,0,0,0-.77-.8,9,9,0,0,1-2.95-4.63A56,56,0,0,1,19,10.13a6.67,6.67,0,0,0-4.53-6.2,2.6,2.6,0,0,0,.28-1.18A2.75,2.75,0,1,0,9.5,3.93,6.65,6.65,0,0,0,5,10.08a52.65,52.65,0,0,1-.55,5.71,9,9,0,0,1-2.95,4.63c-.31.31-.58.58-.77.8a2.69,2.69,0,0,0,.09,3.72c.8.74,2.37,1.26,5,1.63l.34,0C7,26.71,9.82,27,12,27h0c2.13,0,5-.29,5.88-.39l.33,0c2.58-.36,4.16-.89,5-1.64A2.68,2.68,0,0,0,23.24,21.22Zm-12-18.47A.75.75,0,1,1,12,3.5.76.76,0,0,1,11.22,2.75ZM21.79,23.48c-.22.2-1,.71-3.86,1.11l-.27,0c-.9.09-3.64.38-5.67.38h0c-2,0-4.76-.29-5.66-.38l-.29,0c-2.83-.41-3.63-.91-3.84-1.11s-.32-.49.08-1c.15-.18.37-.39.63-.65a10.81,10.81,0,0,0,3.52-5.69,55.74,55.74,0,0,0,.58-6A4.83,4.83,0,0,1,12,5.5a4.84,4.84,0,0,1,5,4.68,57.26,57.26,0,0,0,.59,6,10.8,10.8,0,0,0,3.51,5.69c.26.26.48.47.63.65A.71.71,0,0,1,21.79,23.48Z"/></g></g></svg>