<svg xmlns="http://www.w3.org/2000/svg" xmlns:xlink="http://www.w3.org/1999/xlink" viewBox="0 0 28 27"><defs><style>.cls-1{fill:#fff;}.cls-2{fill:url(#gradient_azul);}</style><radialGradient id="gradient_azul" cx="3.11" cy="1.5" r="29.95" gradientUnits="userSpaceOnUse"><stop offset="0.33" stop-color="#1eb0ea"/><stop offset="1" stop-color="#216fff"/></radialGradient></defs><title>Chat_ON</title><g id="Layer_2" data-name="Layer 2"><g id="Layer_3" data-name="Layer 3"><path class="cls-1" d="M16.5.5h-5a11,11,0,0,0-5,20.79V25.5a.91.91,0,0,0,1.57.71l3.42-3.71h5a11,11,0,0,0,0-22Z"/><path class="cls-2" d="M7.42,27a1.41,1.41,0,0,1-.49-.09A1.49,1.49,0,0,1,6,25.5V21.59A11.49,11.49,0,0,1,11.5,0h5a11.5,11.5,0,0,1,0,23H11.71L8.43,26.54A1.35,1.35,0,0,1,7.42,27ZM11.5,1A10.49,10.49,0,0,0,6.73,20.84L7,21V25.5a.47.47,0,0,0,.29.47.34.34,0,0,0,.41-.1L11.27,22H16.5a10.5,10.5,0,0,0,0-21Z"/><circle class="cls-2" cx="14.5" cy="11.5" r="2"/><circle class="cls-2" cx="21.5" cy="11.5" r="2"/><circle class="cls-2" cx="7.5" cy="11.5" r="2"/></g></g></svg>