<svg xmlns="http://www.w3.org/2000/svg" xmlns:xlink="http://www.w3.org/1999/xlink" viewBox="-2122 155 171.8 107.116">
  <defs>
    <style>
      .cls-1 {
        opacity: 0.9;
      }

      .cls-2 {
        fill: url(#radial-gradient);
      }

      .cls-3 {
        fill: #fff;
      }

      .cls-4 {
        fill: url(#radial-gradient-2);
      }
    </style>
    <radialGradient id="radial-gradient" cx="64.597" cy="10.538" r="82.988" gradientTransform="matrix(0.939, 0.099, -0.099, 0.939, 3.622, -3.529)" gradientUnits="userSpaceOnUse">
      <stop offset="0" stop-color="#00e299"/>
      <stop offset="0.67" stop-color="#1cd661"/>
    </radialGradient>
    <radialGradient id="radial-gradient-2" cx="40.956" cy="23.935" r="49.595" gradientTransform="matrix(-0.938, 0.099, 0.099, 0.938, 78.202, -3.242)" xlink:href="#radial-gradient"/>
  </defs>
  <g id="Comment_Cero" transform="translate(-2121.945 154.995)">
    <g id="Group_2016" data-name="Group 2016" class="cls-1" transform="translate(58.287 0.005)">
      <path id="Path_1325" data-name="Path 1325" class="cls-2" d="M94.3,2.34,73.426.253a46.235,46.235,0,0,0-30,84.793L41.6,102.526c-.261,3.653,3.653,6,6.262,3.653L63.772,92.09h0l20.872,2.087A46.433,46.433,0,0,0,135.52,52.955C138.129,27.909,119.605,5.21,94.3,2.34Z" transform="translate(-22.307 -0.005)"/>
      <g id="Group_2013" data-name="Group 2013" transform="translate(50.336 39.122)">
        <circle id="Ellipse_226" data-name="Ellipse 226" class="cls-3" cx="8.349" cy="8.349" r="8.349"/>
      </g>
      <g id="Group_2014" data-name="Group 2014" transform="translate(79.557 42.253)">
        <circle id="Ellipse_227" data-name="Ellipse 227" class="cls-3" cx="8.349" cy="8.349" r="8.349"/>
      </g>
      <g id="Group_2015" data-name="Group 2015" transform="translate(21.115 35.992)">
        <circle id="Ellipse_228" data-name="Ellipse 228" class="cls-3" cx="8.349" cy="8.349" r="8.349"/>
      </g>
    </g>
    <g id="Group_2020" data-name="Group 2020" class="cls-1" transform="translate(-0.055 29.067)">
      <path id="Path_1326" data-name="Path 1326" class="cls-4" d="M25.917,12.594l13.045-1.3A28.712,28.712,0,0,1,70.532,36.858,29.42,29.42,0,0,1,57.747,63.992L58.791,74.95A2.439,2.439,0,0,1,54.877,77.3L44.7,68.166h0l-13.045,1.3a28.584,28.584,0,1,1-5.74-56.877Z" transform="translate(0.055 -11.144)"/>
      <g id="Group_2017" data-name="Group 2017" transform="translate(28.842 24.149)">
        <circle id="Ellipse_229" data-name="Ellipse 229" class="cls-3" cx="5.218" cy="5.218" r="5.218"/>
      </g>
      <g id="Group_2018" data-name="Group 2018" transform="translate(10.579 25.975)">
        <circle id="Ellipse_230" data-name="Ellipse 230" class="cls-3" cx="5.218" cy="5.218" r="5.218"/>
      </g>
      <g id="Group_2019" data-name="Group 2019" transform="translate(47.105 22.322)">
        <circle id="Ellipse_231" data-name="Ellipse 231" class="cls-3" cx="5.218" cy="5.218" r="5.218"/>
      </g>
    </g>
  </g>
</svg>
