<svg xmlns="http://www.w3.org/2000/svg" xmlns:xlink="http://www.w3.org/1999/xlink" viewBox="-2506 614 50 50.042">
  <defs>
    <style>
      .cls-1 {
        fill: url(#radial-gradient);
      }

      .cls-2 {
        fill: none;
        stroke: #333;
        stroke-miterlimit: 10;
      }

      .cls-3 {
        fill: #fff;
      }

      .cls-4 {
        opacity: 0.2;
        fill: url(#linear-gradient);
      }
    </style>
    <radialGradient id="radial-gradient" cx="38.594" cy="12.839" r="30.026" gradientUnits="userSpaceOnUse">
      <stop offset="0" stop-color="#c8e0e9"/>
      <stop offset="0.33" stop-color="#1eb1eb"/>
      <stop offset="1" stop-color="#216fff"/>
    </radialGradient>
    <linearGradient id="linear-gradient" x1="0.001" y1="0.501" x2="1.001" y2="0.501" gradientUnits="objectBoundingBox">
      <stop offset="0" stop-color="#fff"/>
      <stop offset="1" stop-color="#fff" stop-opacity="0"/>
    </linearGradient>
  </defs>
  <g id="Group_1637" data-name="Group 1637" transform="translate(-2506 614.042)">
    <circle id="Ellipse_157" data-name="Ellipse 157" class="cls-1" cx="25" cy="25" r="25"/>
    <g id="Group_1572" data-name="Group 1572">
      <g id="Group_1571" data-name="Group 1571">
        <path id="Path_696" data-name="Path 696" class="cls-2" d="M25,40.3"/>
      </g>
      <path id="Path_697" data-name="Path 697" class="cls-3" d="M25,9A16,16,0,1,0,41,25,16.047,16.047,0,0,0,25,9ZM40,24.5H35a17.879,17.879,0,0,0-2-7.6,14.8,14.8,0,0,0,2.9-2.2A15.554,15.554,0,0,1,40,24.5ZM25.5,10.6a17.243,17.243,0,0,1,6.1,5.9A16.106,16.106,0,0,1,25.5,18Zm1.2-.5A15.222,15.222,0,0,1,35.2,14a13.5,13.5,0,0,1-2.7,2A17.227,17.227,0,0,0,26.7,10.1Zm-2.2.5V18a15.659,15.659,0,0,1-6.1-1.5A15.077,15.077,0,0,1,24.5,10.6Zm-7,5.4a23.43,23.43,0,0,1-2.7-2,15.222,15.222,0,0,1,8.5-3.9A17.227,17.227,0,0,0,17.5,16Zm7,3v5.5H16a16.073,16.073,0,0,1,1.9-7.2A16.537,16.537,0,0,0,24.5,19Zm0,6.5V31a15.037,15.037,0,0,0-6.6,1.7A17.488,17.488,0,0,1,16,25.5Zm0,6.5v7.4a15.746,15.746,0,0,1-6.1-5.9A15.659,15.659,0,0,1,24.5,32Zm-1.2,7.9A15.222,15.222,0,0,1,14.8,36a13.5,13.5,0,0,1,2.7-2A17.227,17.227,0,0,0,23.3,39.9Zm2.2-.5V32a15.659,15.659,0,0,1,6.1,1.5A15.077,15.077,0,0,1,25.5,39.4Zm7-5.4a23.43,23.43,0,0,1,2.7,2,15.222,15.222,0,0,1-8.5,3.9A17.227,17.227,0,0,0,32.5,34Zm-7-3V25.5H34a16.073,16.073,0,0,1-1.9,7.2A16.537,16.537,0,0,0,25.5,31Zm0-6.5V19a16.438,16.438,0,0,0,6.6-1.6A17.488,17.488,0,0,1,34,24.6H25.5ZM14.1,14.7A19.408,19.408,0,0,0,17,16.8a17.939,17.939,0,0,0-2,7.7H10A15.554,15.554,0,0,1,14.1,14.7ZM10,25.5h5a18.718,18.718,0,0,0,2,7.7,19.408,19.408,0,0,0-2.9,2.1A15.553,15.553,0,0,1,10,25.5Zm25.9,9.8A19.408,19.408,0,0,0,33,33.2a17.939,17.939,0,0,0,2-7.7h5A15.554,15.554,0,0,1,35.9,35.3Z"/>
    </g>
    <path id="Path_698" data-name="Path 698" class="cls-4" d="M30.6,13.6c7.5-1.9,9.6,8.7,12.5,10.6,1.9,1.3,5.7-1.5,4.8-7S40.8,3.9,33.1,1.5,17.4-.9,10.2,4.4,1.7,16.8,5,21.7C11.3,31.1,18.1,16.7,30.6,13.6Z"/>
  </g>
</svg>
