<svg xmlns="http://www.w3.org/2000/svg" xmlns:xlink="http://www.w3.org/1999/xlink" viewBox="0 0 30.27 29"><defs><style>.cls-1{fill:#fff;}.cls-2{fill:url(#gradient_azul);}</style><radialGradient id="gradient_azul" cx="9.01" cy="9.08" r="21.79" gradientUnits="userSpaceOnUse"><stop offset="0.33" stop-color="#1eb0ea"/><stop offset="1" stop-color="#216fff"/></radialGradient></defs><title>Like_ON</title><g id="Layer_2" data-name="Layer 2"><g id="Layer_3" data-name="Layer 3"><path class="cls-1" d="M12.51,25.79a1.67,1.67,0,0,0-1-.29H3.77l.11.73A2.09,2.09,0,0,0,6,28h5.59a1.67,1.67,0,0,0,1-.29,1.12,1.12,0,0,0,0-1.92Z"/><path class="cls-1" d="M24.25,15c-1.39-.1-2.72-1.25-3.79-2.17l-.53-.45c-.38-.31-3.68-3.14-3.68-6.38V3.5c0-2.31-.71-2.5-1.5-2.5s-2.5,1.52-2.5,4v6a.5.5,0,0,1-.5.5H5.45a3.16,3.16,0,0,0-.32,0v0H3.64A2.76,2.76,0,0,0,1,14.25a2.64,2.64,0,0,0,.35,1.31,2.65,2.65,0,0,0,.61.76,2.53,2.53,0,0,0,.55.37A2.74,2.74,0,0,0,3.75,17l.11,0v0h7.68a1.54,1.54,0,0,0,.94-.33,1.5,1.5,0,0,0,0-2.34,1.54,1.54,0,0,0-.94-.33H5.25a.5.5,0,0,1,0-1h6.3a2.45,2.45,0,0,1,1.56.55,2.48,2.48,0,0,1,.94,1.95,2.45,2.45,0,0,1-.51,1.5h.21a2.45,2.45,0,0,1,1.56.55,2.49,2.49,0,0,1,0,3.9,2.2,2.2,0,0,1-.44.28,2.09,2.09,0,0,1,.68,1.52,2.16,2.16,0,0,1-1,1.78,2.66,2.66,0,0,1-1,.41,2.11,2.11,0,0,1,.48,1.31A2,2,0,0,1,13.61,28h3.05l5.42-2a.47.47,0,0,1,.17,0h7l0-11Z"/><path class="cls-1" d="M14.55,23.25a1.19,1.19,0,0,0-.54-1,1.67,1.67,0,0,0-1-.29H3.75a1.39,1.39,0,0,0-.46.09,1.39,1.39,0,0,0-.46.33,1.2,1.2,0,0,0,.27,1.87,1.21,1.21,0,0,0,.53.19l.12,0h9.3a1.67,1.67,0,0,0,1-.29A1.19,1.19,0,0,0,14.55,23.25Z"/><path class="cls-1" d="M3.13,21H13.75a1.54,1.54,0,0,0,.94-.33,1.5,1.5,0,0,0,0-2.34,1.54,1.54,0,0,0-.94-.33H3.25a1.51,1.51,0,0,0-.53.1,1.61,1.61,0,0,0-.47.29,1.47,1.47,0,0,0-.41.62,1.58,1.58,0,0,0-.09.49,1.55,1.55,0,0,0,.28.87,1.59,1.59,0,0,0,.58.48A1.48,1.48,0,0,0,3.13,21Z"/><path class="cls-2" d="M29.77,14l-5.48,0c-1-.07-2.22-1.1-3.18-1.93l-.54-.45c-.14-.12-3.32-2.79-3.32-5.62V3.5c0-1.63-.28-3.5-2.5-3.5-1.62,0-3.5,2.18-3.5,5v5.5H3.75A3.74,3.74,0,0,0,1.6,17.31l0,.29a2.47,2.47,0,0,0,.47,4.11,2.31,2.31,0,0,0-.61,1.54,2.23,2.23,0,0,0,1.23,2l.16,1.13A3.09,3.09,0,0,0,6,29H16.75a.47.47,0,0,0,.17,0l5.42-2h7.41a.5.5,0,0,0,.5-.5l0-12A.5.5,0,0,0,29.77,14Zm-.52,12h-7a.47.47,0,0,0-.17,0l-5.42,2H13.61a2,2,0,0,0,.44-1.25,2.11,2.11,0,0,0-.48-1.31,2.66,2.66,0,0,0,1-.41,2.16,2.16,0,0,0,1-1.78,2.09,2.09,0,0,0-.68-1.52,2.2,2.2,0,0,0,.44-.28,2.49,2.49,0,0,0,0-3.9A2.45,2.45,0,0,0,13.75,17h-.21a2.45,2.45,0,0,0,.51-1.5,2.48,2.48,0,0,0-.94-1.95A2.45,2.45,0,0,0,11.55,13H5.25a.5.5,0,0,0,0,1h6.3a1.54,1.54,0,0,1,.94.33,1.5,1.5,0,0,1,0,2.34,1.54,1.54,0,0,1-.94.33H3.87v0l-.11,0a2.74,2.74,0,0,1-1.24-.31A2.53,2.53,0,0,1,2,16.32a2.65,2.65,0,0,1-.61-.76A2.64,2.64,0,0,1,1,14.25a2.76,2.76,0,0,1,2.64-2.74H5.13v0a3.16,3.16,0,0,1,.32,0h6.3a.5.5,0,0,0,.5-.5V5c0-2.48,1.62-4,2.5-4s1.5.19,1.5,2.5V6c0,3.24,3.3,6.07,3.68,6.38l.53.45c1.07.92,2.4,2.07,3.79,2.17l5,0Zm-23,2H6a2.09,2.09,0,0,1-2.08-1.77l-.11-.73h7.78a1.67,1.67,0,0,1,1,.29,1.12,1.12,0,0,1,0,1.92,1.67,1.67,0,0,1-1,.29ZM1.84,19a1.47,1.47,0,0,1,.41-.62,1.61,1.61,0,0,1,.47-.29,1.51,1.51,0,0,1,.53-.1h10.5a1.54,1.54,0,0,1,.94.33,1.5,1.5,0,0,1,0,2.34,1.54,1.54,0,0,1-.94.33H3.13a1.48,1.48,0,0,1-.52-.14A1.59,1.59,0,0,1,2,20.37a1.55,1.55,0,0,1-.28-.87A1.58,1.58,0,0,1,1.84,19Zm1,3.41a1.39,1.39,0,0,1,.46-.33A1.39,1.39,0,0,1,3.75,22h9.3a1.67,1.67,0,0,1,1,.29,1.12,1.12,0,0,1,0,1.92,1.67,1.67,0,0,1-1,.29H3.75l-.12,0a1.21,1.21,0,0,1-.53-.19,1.2,1.2,0,0,1-.27-1.87Z"/></g></g></svg>