<svg xmlns="http://www.w3.org/2000/svg" xmlns:xlink="http://www.w3.org/1999/xlink" viewBox="0 0 50 53.59"><defs><style>.cls-1{opacity:0.6;fill:url(#radial-gradient);}.cls-2{fill:url(#radial-gradient-2);}.cls-3{opacity:0.2;fill:url(#linear-gradient);}.cls-4{fill:#fff;stroke:#fff;stroke-miterlimit:10;}</style><radialGradient id="radial-gradient" cx="25" cy="-512.7" r="20" gradientTransform="translate(0 130.57) scale(1 0.16)" gradientUnits="userSpaceOnUse"><stop offset="0" stop-color="#2e318d"/><stop offset="1" stop-color="#fff" stop-opacity="0"/></radialGradient><radialGradient id="radial-gradient-2" cx="38.59" cy="12.88" r="37.72" gradientUnits="userSpaceOnUse"><stop offset="0" stop-color="#f6b9b8"/><stop offset="0.16" stop-color="#f63b3b"/><stop offset="1" stop-color="#8e0d0d"/></radialGradient><linearGradient id="linear-gradient" x1="3.75" y1="12.42" x2="48.53" y2="12.42" gradientUnits="userSpaceOnUse"><stop offset="0" stop-color="#fff"/><stop offset="1" stop-color="#fff" stop-opacity="0"/></linearGradient></defs><title>Pin_ON</title><g id="Layer_2" data-name="Layer 2"><g id="Layer_3" data-name="Layer 3"><ellipse class="cls-1" cx="25" cy="50.47" rx="20" ry="3.12"/><circle class="cls-2" cx="25" cy="25.04" r="25"/><path class="cls-3" d="M31.07,13.59c7.51-1.88,9.59,8.69,12.5,10.63,1.88,1.25,5.7-1.53,4.83-7S41.21,3.94,33.58,1.55s-15.7-2.4-22.9,2.83S2.17,16.81,5.45,21.72C11.7,31.09,18.57,16.72,31.07,13.59Z"/><path class="cls-4" d="M11.46,38.58a.48.48,0,0,0,.66,0l8.09-8.1a.46.46,0,0,0-.65-.65l-8.1,8.1A.46.46,0,0,0,11.46,38.58Z"/><path class="cls-4" d="M16.72,23.91l-.24-.24a.46.46,0,0,0-.65.65l.47.47h0l4.47,4.48,4.48,4.47h0l.47.48a.46.46,0,0,0,.33.13.45.45,0,0,0,.32-.13.46.46,0,0,0,0-.65l-.24-.25,2.35-4.89a20,20,0,0,0,8.74-4.2l.66.67a.46.46,0,1,0,.66-.65l-1-1h0l-10.8-10.8h0l-1-1a.47.47,0,0,0-.66,0,.46.46,0,0,0,0,.65l.67.66a20.06,20.06,0,0,0-4.2,8.75ZM22.48,22a19.49,19.49,0,0,1,4-8.49L36.57,23.59a19.56,19.56,0,0,1-8.48,4,.44.44,0,0,0-.34.25l-2.31,4.81-4-4h0l-4-4,4.81-2.3A.47.47,0,0,0,22.48,22Z"/></g></g></svg>