<svg xmlns="http://www.w3.org/2000/svg" viewBox="-2359.919 1285 28 28.1">
  <defs>
    <style>
      .cls-1 {
        fill: #fff;
      }

      .cls-2 {
        fill: #5e5d5d;
      }
    </style>
  </defs>
  <g id="Symbol_14_7" data-name="Symbol 14 – 7" transform="translate(-2647 753)">
    <g id="Group_1511" data-name="Group 1511" transform="translate(287.08 532.1)">
      <path id="Path_641" data-name="Path 641" class="cls-1" d="M8.2,11.6A4.174,4.174,0,0,0,5,10a4,4,0,0,0,0,8,3.976,3.976,0,0,0,3.2-1.7,3.7,3.7,0,0,0,.5-1.1A2.663,2.663,0,0,0,9,14a5.019,5.019,0,0,0-.2-1.2Z"/>
      <path id="Path_642" data-name="Path 642" class="cls-1" d="M19.7,7.3A3.925,3.925,0,1,0,18.9,5a5.019,5.019,0,0,0,.2,1.2C19.3,6.6,19.5,6.9,19.7,7.3Z"/>
      <path id="Path_643" data-name="Path 643" class="cls-1" d="M22.9,19a3.976,3.976,0,0,0-3.2,1.7,10.908,10.908,0,0,0-.6,1.1,3.75,3.75,0,0,0-.1,1.1A4,4,0,1,0,22.9,19Z"/>
    </g>
    <path id="Path_644" data-name="Path 644" class="cls-2" d="M22.9,18a5.021,5.021,0,0,0-4.1,2.2L9.7,15.6A9,9,0,0,0,10,14a5.079,5.079,0,0,0-.3-1.7l9.2-4.6A4.972,4.972,0,0,0,28,4.9a5,5,0,0,0-10,0,4.146,4.146,0,0,0,.3,1.6L9.1,11.1A5.2,5.2,0,0,0,5,9a5.015,5.015,0,0,0-5,5,4.951,4.951,0,0,0,5,5,5.021,5.021,0,0,0,4.1-2.2l9.1,4.6a4.529,4.529,0,0,0-.3,1.6,5.015,5.015,0,0,0,5,5,5,5,0,1,0,0-10ZM19,5a4.16,4.16,0,1,1,.8,2.3,10.908,10.908,0,0,1-.6-1.1A2.537,2.537,0,0,1,19,5ZM5,18a4,4,0,0,1,0-8,4.174,4.174,0,0,1,3.2,1.6,10.908,10.908,0,0,1,.6,1.1A5.853,5.853,0,0,1,9,14a5.019,5.019,0,0,1-.2,1.2,3.7,3.7,0,0,1-.5,1.1A4.318,4.318,0,0,1,5,18Zm17.9,8.9a4.012,4.012,0,0,1-4-4,5.019,5.019,0,0,1,.2-1.2,2.384,2.384,0,0,1,.6-1.1,3.975,3.975,0,1,1,3.2,6.3Z" transform="translate(287.08 532.1)"/>
  </g>
</svg>
