<svg xmlns="http://www.w3.org/2000/svg" xmlns:xlink="http://www.w3.org/1999/xlink" viewBox="-2360 829 28 28.1">
  <defs>
    <style>
      .cls-1 {
        fill: url(#linear-gradient);
      }
    </style>
    <linearGradient id="linear-gradient" x2="0" y2="1" gradientUnits="objectBoundingBox">
      <stop offset="0" stop-color="#3f9ffe"/>
      <stop offset="1" stop-color="#00d3ff"/>
    </linearGradient>
  </defs>
  <g id="Share_ON" transform="translate(-2647 297)">
    <g id="Group_1511" data-name="Group 1511" transform="translate(287 532.1)">
      <path id="Path_641" data-name="Path 641" class="cls-1" d="M8.778,11.729A4.509,4.509,0,0,0,5.321,10a4.321,4.321,0,0,0,0,8.643,4.3,4.3,0,0,0,3.457-1.837,3.994,3.994,0,0,0,.54-1.188,2.877,2.877,0,0,0,.324-1.3,5.423,5.423,0,0,0-.216-1.3Z" transform="translate(-0.321 -0.321)"/>
      <path id="Path_642" data-name="Path 642" class="cls-1" d="M19.743,7.641A4.137,4.137,0,1,0,18.9,5.216a5.291,5.291,0,0,0,.211,1.265C19.322,6.9,19.532,7.219,19.743,7.641Z" transform="translate(-0.216 -0.216)"/>
      <path id="Path_643" data-name="Path 643" class="cls-1" d="M23.208,19a4.29,4.29,0,0,0-3.453,1.834,11.771,11.771,0,0,0-.647,1.187A4.046,4.046,0,0,0,19,23.208,4.318,4.318,0,1,0,23.208,19Z" transform="translate(-0.316 -0.312)"/>
    </g>
    <path id="Path_644" data-name="Path 644" class="cls-1" d="M22.9,18a5.021,5.021,0,0,0-4.1,2.2L9.7,15.6A9,9,0,0,0,10,14a5.079,5.079,0,0,0-.3-1.7l9.2-4.6A4.972,4.972,0,0,0,28,4.9a5,5,0,0,0-10,0,4.146,4.146,0,0,0,.3,1.6L9.1,11.1A5.2,5.2,0,0,0,5,9a5.015,5.015,0,0,0-5,5,4.951,4.951,0,0,0,5,5,5.021,5.021,0,0,0,4.1-2.2l9.1,4.6a4.529,4.529,0,0,0-.3,1.6,5.015,5.015,0,0,0,5,5,5,5,0,1,0,0-10ZM19,5a4.16,4.16,0,1,1,.8,2.3,10.908,10.908,0,0,1-.6-1.1A2.537,2.537,0,0,1,19,5ZM5,18a4,4,0,0,1,0-8,4.174,4.174,0,0,1,3.2,1.6,10.908,10.908,0,0,1,.6,1.1A5.853,5.853,0,0,1,9,14a5.019,5.019,0,0,1-.2,1.2,3.7,3.7,0,0,1-.5,1.1A4.318,4.318,0,0,1,5,18Zm17.9,8.9a4.012,4.012,0,0,1-4-4,5.019,5.019,0,0,1,.2-1.2,2.384,2.384,0,0,1,.6-1.1,3.975,3.975,0,1,1,3.2,6.3Z" transform="translate(287 532.1)"/>
  </g>
</svg>
