<svg xmlns="http://www.w3.org/2000/svg" xmlns:xlink="http://www.w3.org/1999/xlink" viewBox="-2405 627 32 34.5">
  <defs>
    <style>
      .cls-1 {
        opacity: 0.65;
        fill: url(#radial-gradient);
      }

      .cls-2 {
        fill: url(#radial-gradient-2);
      }

      .cls-3 {
        opacity: 0.2;
        fill: url(#linear-gradient);
      }

      .cls-4, .cls-5 {
        fill: none;
        stroke: #fff;
        stroke-miterlimit: 10;
      }

      .cls-4 {
        stroke-width: 0.972px;
      }

      .cls-6 {
        fill: #fff;
      }
    </style>
    <radialGradient id="radial-gradient" cx="14.869" cy="2.23" r="87.619" gradientTransform="translate(12.639 2.164) scale(0.15 0.03)" gradientUnits="userSpaceOnUse">
      <stop offset="0" stop-color="#902e2e"/>
      <stop offset="1" stop-color="#fff" stop-opacity="0"/>
    </radialGradient>
    <radialGradient id="radial-gradient-2" cx="24.7" cy="8.237" r="19.233" gradientTransform="translate(0.021 0.014)" gradientUnits="userSpaceOnUse">
      <stop offset="0" stop-color="#ffbeca"/>
      <stop offset="0.313" stop-color="#ff2160"/>
      <stop offset="1" stop-color="#b30e40"/>
    </radialGradient>
    <linearGradient id="linear-gradient" y1="0.501" x2="1" y2="0.501" gradientUnits="objectBoundingBox">
      <stop offset="0" stop-color="#fff"/>
      <stop offset="1" stop-color="#fff" stop-opacity="0"/>
    </linearGradient>
  </defs>
  <g id="Task_ON" transform="translate(-2647)">
    <rect id="Rectangle_534" data-name="Rectangle 534" class="cls-1" width="29.739" height="4.461" rx="2.23" transform="translate(243 657.039)"/>
    <g id="Group_1640" data-name="Group 1640" transform="translate(242 627.042)">
      <g id="Group_1584" data-name="Group 1584" transform="translate(0 -0.042)">
        <ellipse id="Ellipse_162" data-name="Ellipse 162" class="cls-2" cx="16" cy="15.986" rx="16" ry="15.986" transform="translate(0 0.027)"/>
        <path id="Path_700" data-name="Path 700" class="cls-3" d="M21.255,8.681c4.8-1.215,6.144,5.563,8,6.778,1.216.831,3.648-.959,3.072-4.476S27.719,2.479,22.855.944,12.807-.591,8.2,2.8s-5.44,7.929-3.392,11.063C8.839,19.872,13.255,10.664,21.255,8.681Z" transform="translate(-1.351 0.042)"/>
      </g>
      <g id="Group_1586" data-name="Group 1586" transform="translate(8.592 6.315)">
        <path id="Path_701" data-name="Path 701" class="cls-4" d="M22.369,12.3c1.28,0,1.856.064,3.072.128a3.13,3.13,0,0,1,2.816,3.133c0,3.837.064,7.673,0,11.51a2.977,2.977,0,0,1-2.944,2.941c-3.52.064-5.376.064-8.9,0a2.977,2.977,0,0,1-2.944-2.941q-.1-5.755,0-11.51a3.13,3.13,0,0,1,2.816-3.133c1.216-.064,1.856-.128,3.136-.128" transform="translate(-13.425 -10.765)"/>
        <path id="Path_702" data-name="Path 702" class="cls-4" d="M25.4,12.3" transform="translate(-17.736 -10.765)"/>
        <path id="Path_703" data-name="Path 703" class="cls-4" d="M24.7,12.3" transform="translate(-17.484 -10.765)"/>
        <path id="Path_704" data-name="Path 704" class="cls-5" d="M24.062,12.65h0A1.54,1.54,0,0,1,22.4,11.179h0A1.521,1.521,0,0,1,24.062,9.9h0c.9,0,1.664.512,1.664,1.279h0A1.54,1.54,0,0,1,24.062,12.65Z" transform="translate(-16.654 -9.9)"/>
        <g id="Group_1585" data-name="Group 1585" transform="translate(2.48 6.315)">
          <path id="Path_705" data-name="Path 705" class="cls-6" d="M26.452,21.326c-3.136-.128-5.312-.128-8.512,0a.657.657,0,0,1-.64-.7h0a.7.7,0,0,1,.64-.7,62.074,62.074,0,0,1,8.448,0,.657.657,0,0,1,.64.7h0A.578.578,0,0,1,26.452,21.326Z" transform="translate(-17.3 -19.775)"/>
          <path id="Path_706" data-name="Path 706" class="cls-6" d="M26.452,25.807c-3.136.064-5.376.064-8.512,0a.657.657,0,0,1-.64-.7h0a.657.657,0,0,1,.64-.7h8.512a.657.657,0,0,1,.64.7h0A.622.622,0,0,1,26.452,25.807Z" transform="translate(-17.3 -21.443)"/>
          <path id="Path_707" data-name="Path 707" class="cls-6" d="M26.488,30.238a62.074,62.074,0,0,1-8.448,0,.657.657,0,0,1-.64-.7h0c0-.384.256-.7.64-.639,3.136.128,5.312.128,8.448,0a.6.6,0,0,1,.64.639h0A.657.657,0,0,1,26.488,30.238Z" transform="translate(-17.336 -23.06)"/>
          <path id="Path_708" data-name="Path 708" class="cls-6" d="M21.6,34.5a28.963,28.963,0,0,1-3.392-.128.756.756,0,0,1-.7-.7h0a.529.529,0,0,1,.64-.576,30.085,30.085,0,0,0,3.456.128.7.7,0,0,1,.7.639h0A.658.658,0,0,1,21.6,34.5Z" transform="translate(-17.372 -24.574)"/>
        </g>
      </g>
    </g>
  </g>
</svg>
