<svg xmlns="http://www.w3.org/2000/svg" xmlns:xlink="http://www.w3.org/1999/xlink" viewBox="0 0 50 53.59"><defs><style>.cls-1{opacity:0.6;fill:url(#radial-gradient);}.cls-2{fill:url(#radial-gradient-2);}.cls-3{opacity:0.2;fill:url(#linear-gradient);}.cls-4{fill:#fff;}.cls-5{fill:url(#linear-gradient-2);}</style><radialGradient id="radial-gradient" cx="25" cy="44.81" r="20" gradientTransform="translate(0 43.47) scale(1 0.16)" gradientUnits="userSpaceOnUse"><stop offset="0" stop-color="#132c70"/><stop offset="1" stop-color="#fff" stop-opacity="0"/></radialGradient><radialGradient id="radial-gradient-2" cx="38.59" cy="12.84" r="38.21" gradientUnits="userSpaceOnUse"><stop offset="0.02" stop-color="#ededed"/><stop offset="0.26" stop-color="#0d44a3"/><stop offset="1" stop-color="#021a42"/></radialGradient><linearGradient id="linear-gradient" x1="3.3" y1="12.42" x2="48.08" y2="12.42" gradientUnits="userSpaceOnUse"><stop offset="0" stop-color="#fff"/><stop offset="1" stop-color="#fff" stop-opacity="0"/></linearGradient><linearGradient id="linear-gradient-2" x1="26.32" y1="27.49" x2="32.66" y2="20.58" gradientUnits="userSpaceOnUse"><stop offset="0" stop-color="#c7c7c7"/><stop offset="0.16" stop-color="#d9d9d9"/><stop offset="0.42" stop-color="#fff"/></linearGradient></defs><title>Yira ON</title><g id="Layer_2" data-name="Layer 2"><g id="Layer_3" data-name="Layer 3"><ellipse class="cls-1" cx="25" cy="50.47" rx="20" ry="3.12"/><circle class="cls-2" cx="25" cy="25" r="25"/><path class="cls-3" d="M30.63,13.59c7.51-1.88,9.59,8.69,12.5,10.63,1.87,1.25,5.7-1.53,4.83-7S40.76,3.94,33.13,1.55,17.43-.85,10.24,4.38,1.73,16.81,5,21.72C11.25,31.09,18.13,16.72,30.63,13.59Z"/><path class="cls-4" d="M24.48,25.52c-.64-.65-1.28-1.3-1.9-2A15.07,15.07,0,0,1,19.44,19a1.08,1.08,0,0,0-.61-.46c-1.1-.36-2.21-.68-3.32-1-.58-.18-.9.1-.82.71a11.74,11.74,0,0,0,2.1,5.2,39.5,39.5,0,0,0,4.74,5.43,32.6,32.6,0,0,1,4.35,5,8.1,8.1,0,0,1,1.41,3.8c0,.37.24.55.65.56s1.06,0,1.58,0,1,0,1.51,0,.76-.18.74-.76a10.77,10.77,0,0,0-1-3.9,15.75,15.75,0,0,0-1.39-2.43c.05.08.1.16.14.24,0-.08-.09-.16-.14-.24-.31-.46-.63-.91-1-1.35a.85.85,0,0,1-.21-.45,41.66,41.66,0,0,0-3.31-3.6A.83.83,0,0,1,24.48,25.52Z"/><path class="cls-5" d="M28.43,28.88c.59-.59,1.17-1.19,1.75-1.79A24.66,24.66,0,0,0,34,22.16a11,11,0,0,0,1.3-3.85c.1-.74-.2-1-.91-.75-1.06.33-2.11.64-3.18,1a1,1,0,0,0-.72.61,11.6,11.6,0,0,1-.86,1.64,30,30,0,0,1-4.1,4.75c-.25.25-.45.32-.66.26a41.66,41.66,0,0,1,3.31,3.6A.68.68,0,0,1,28.43,28.88Z"/><path class="cls-4" d="M20.43,38.27H19c-.67,0-.85-.17-.81-.86a11.42,11.42,0,0,1,1.55-4.88,12.15,12.15,0,0,1,.66-1.09.54.54,0,0,1,.93-.1c.71.77,1.41,1.57,2.1,2.36a.88.88,0,0,1,.12,1.1,7.4,7.4,0,0,0-.89,2.93.57.57,0,0,1-.64.53Z"/><path class="cls-4" d="M25,19.18h1.81c.51,0,.74.33.54.79a8.71,8.71,0,0,1-1.87,2.71.57.57,0,0,1-.93,0A8.57,8.57,0,0,1,22.68,20c-.22-.49,0-.8.53-.81Z"/><path class="cls-4" d="M29.14,14.3a1.72,1.72,0,0,1,1.77-1.73,1.76,1.76,0,1,1-1.77,1.73Z"/><path class="cls-4" d="M26.75,12.69A1.72,1.72,0,0,1,25,14.44a1.75,1.75,0,0,1-1.81-1.75A1.77,1.77,0,0,1,25,10.91,1.73,1.73,0,0,1,26.75,12.69Z"/><path class="cls-4" d="M17.36,14.3a1.67,1.67,0,0,1,1.76-1.73,1.71,1.71,0,0,1,1.74,1.78,1.75,1.75,0,0,1-1.74,1.74A1.71,1.71,0,0,1,17.36,14.3Z"/></g></g></svg>