<svg xmlns="http://www.w3.org/2000/svg" viewBox="0 0 24.97 31.94"><defs><style>.cls-1{fill:#a0a0a0;}</style></defs><title>ADD FILE OFF</title><g id="Layer_2" data-name="Layer 2"><g id="Layer_3" data-name="Layer 3"><path class="cls-1" d="M25,8.25v-.4h0a2.57,2.57,0,0,0-.67-1.37L19,.83A2.59,2.59,0,0,0,17.06,0H6.68A2.62,2.62,0,0,0,4.06,2.61V3.94H3a3,3,0,0,0-3,3v22a3,3,0,0,0,3,3H18a3,3,0,0,0,3-3V27.87h1.33A2.61,2.61,0,0,0,25,25.26v-17ZM17.57,1a1.72,1.72,0,0,1,.76.46l5.3,5.65a1.78,1.78,0,0,1,.41.78H19.9a2.33,2.33,0,0,1-2.33-2.33Zm2.46,28a2,2,0,0,1-2,2H3a2,2,0,0,1-2-2v-22a2,2,0,0,1,2-2H4.06V25.26a2.62,2.62,0,0,0,2.62,2.61H20Zm4.07-3.68A1.74,1.74,0,0,1,22.36,27H6.68a1.74,1.74,0,0,1-1.74-1.74V2.61A1.74,1.74,0,0,1,6.68.87h10V5.52a3.21,3.21,0,0,0,3.21,3.2h4.2Z"/><path class="cls-1" d="M19.52,16.44H15V11.52a.5.5,0,0,0-.5-.5.5.5,0,0,0-.5.5v4.92H9.52a.5.5,0,0,0-.5.5.5.5,0,0,0,.5.5H14v4.91a.5.5,0,0,0,.5.5.5.5,0,0,0,.5-.5V17.44h4.5a.51.51,0,0,0,.5-.5A.5.5,0,0,0,19.52,16.44Z"/></g></g></svg>