<svg xmlns="http://www.w3.org/2000/svg" viewBox="0 0 32.83 30.51"><defs><style>.cls-1{fill:#006eff;}</style></defs><title>APPLE CLIP</title><g id="Layer_2" data-name="Layer 2"><g id="Layer_1-2" data-name="Layer 1"><path class="cls-1" d="M15.06,5.56,3.67,17a6.89,6.89,0,0,0,0,9.76l.12.12a6.91,6.91,0,0,0,9.76,0L28.8,11.59C31.48,8.91,32,5.06,29.94,3l-.11-.1C27.78.84,23.92,1.35,21.24,4L6.54,18.74C4.64,20.64,4.59,23,6,24.42l.08.08c1.42,1.42,3.78,1.37,5.68-.53L22.62,13.12l1.16,1.16L12.93,25.13c-2.54,2.55-5.94,2.59-8,.53l-.08-.08c-2.07-2.07-2-5.46.53-8L20.08,2.87C23.41-.46,28.3-1,31,1.73l.11.11c2.7,2.7,2.19,7.58-1.14,10.91L14.71,28A8.56,8.56,0,0,1,2.62,28l-.12-.13a8.55,8.55,0,0,1,0-12.08L13.9,4.4Z"/></g></g></svg>