<svg xmlns="http://www.w3.org/2000/svg" viewBox="0 0 27.49 23.47"><defs><style>.cls-1{fill:gray;}</style></defs><title>Arrow 2</title><g id="Layer_2" data-name="Layer 2"><g id="Layer_3" data-name="Layer 3"><path class="cls-1" d="M27,23.47a.49.49,0,0,1-.45-.28,17.26,17.26,0,0,0-3.3-4.5,16.71,16.71,0,0,0-4.35-3.12A17.64,17.64,0,0,0,14,14a18.91,18.91,0,0,0-2.54-.27H11v6.8a.5.5,0,0,1-.31.46.48.48,0,0,1-.54-.11l-10-10a.48.48,0,0,1,0-.7l10-10A.48.48,0,0,1,10.68,0,.49.49,0,0,1,11,.5V7.12c.53.13,1,.27,1.55.43a25,25,0,0,1,3.1,1.19,22.67,22.67,0,0,1,5.5,3.52,20.4,20.4,0,0,1,4.07,4.9h0a19,19,0,0,1,2.27,5.7.49.49,0,0,1-.33.57A.45.45,0,0,1,27,23.47ZM10.91,12.68h.53a19.41,19.41,0,0,1,2.68.29,18.47,18.47,0,0,1,5.21,1.69A17.91,17.91,0,0,1,23.94,18c.48.48.93,1,1.34,1.47-.28-.59-.59-1.18-.93-1.78A19,19,0,0,0,20.48,13a21.32,21.32,0,0,0-5.26-3.37,23.14,23.14,0,0,0-3-1.15c-.51-.15-1-.3-1.56-.42L10.38,8A.48.48,0,0,1,10,7.53V1.71L1.21,10.49,10,19.27V13.18a.5.5,0,0,1,.5-.5Z"/></g></g></svg>