<svg xmlns="http://www.w3.org/2000/svg" viewBox="0 0 27.49 23.47"><defs><style>.cls-1{fill:gray;}</style></defs><title>Arrow 1</title><g id="Layer_2" data-name="Layer 2"><g id="Layer_3" data-name="Layer 3"><path class="cls-1" d="M.34,23.44A.49.49,0,0,1,0,22.87a19,19,0,0,1,2.27-5.7h0a20.4,20.4,0,0,1,4.07-4.9,22.67,22.67,0,0,1,5.5-3.52A25,25,0,0,1,15,7.55c.51-.16,1-.3,1.55-.43V.5A.49.49,0,0,1,16.81,0a.48.48,0,0,1,.54.11l10,10a.48.48,0,0,1,0,.7l-10,10a.48.48,0,0,1-.54.11.5.5,0,0,1-.31-.46v-6.8h-.42a18.91,18.91,0,0,0-2.54.27A17.64,17.64,0,0,0,8.6,15.57a16.71,16.71,0,0,0-4.35,3.12A17.26,17.26,0,0,0,1,23.19a.49.49,0,0,1-.45.28A.45.45,0,0,1,.34,23.44ZM17,12.68a.5.5,0,0,1,.5.5v6.09l8.78-8.78L17.5,1.71V7.53a.48.48,0,0,1-.39.48l-.3.07c-.53.12-1,.27-1.56.42a23.14,23.14,0,0,0-3,1.15A21.32,21.32,0,0,0,7,13a19,19,0,0,0-3.87,4.65c-.34.6-.66,1.19-.93,1.78.41-.5.86-1,1.34-1.47a17.91,17.91,0,0,1,4.61-3.31A18.47,18.47,0,0,1,13.37,13a19.41,19.41,0,0,1,2.68-.29H17Z"/></g></g></svg>