<svg xmlns="http://www.w3.org/2000/svg" viewBox="0 0 31.55 29.18"><defs><style>.cls-1{fill:#006eff;}</style></defs><title>Asset 2</title><g id="Layer_2" data-name="Layer 2"><g id="Layer_5" data-name="Layer 5"><path class="cls-1" d="M30.05,1.5a5.13,5.13,0,0,0-7.25,0L7.6,16.7a.76.76,0,0,0-.08.11l-.1.07a3.49,3.49,0,1,0,4.94,4.94.61.61,0,0,0,.07-.1.41.41,0,0,0,.11-.07L23.87,10.31a.5.5,0,0,0,0-.71.5.5,0,0,0-.7,0L11.83,20.94a.41.41,0,0,0-.07.11.41.41,0,0,0-.11.07,2.5,2.5,0,0,1-3.53-3.53s.05-.07.08-.11l.1-.07L23.5,2.21a4.13,4.13,0,0,1,5.85,5.84L10.92,26.48h0A5.81,5.81,0,0,1,2.7,18.26L17,3.93a.5.5,0,0,0,0-.71.5.5,0,0,0-.7,0L1.94,17.61l0,0a6.81,6.81,0,0,0,9.63,9.62h0L30.05,8.76A5.14,5.14,0,0,0,30.05,1.5Z"/></g></g></svg>