<svg xmlns="http://www.w3.org/2000/svg" viewBox="0 0 32.55 30.18"><defs><style>.cls-1{fill:#006eff;}</style></defs><title>Asset 1</title><g id="Layer_2" data-name="Layer 2"><g id="Layer_5" data-name="Layer 5"><path class="cls-1" d="M30.91,1.65a5.64,5.64,0,0,0-8,0L7.74,16.85a1.05,1.05,0,0,0-.07.11L7.56,17a4,4,0,0,0,2.83,6.81,4,4,0,0,0,2.82-1.16.26.26,0,0,0,.07-.11,1.05,1.05,0,0,0,.11-.07L24.73,11.16a1,1,0,0,0,0-1.41,1,1,0,0,0-1.42,0L12,21.09a.61.61,0,0,0-.07.1,1.05,1.05,0,0,0-.11.07A2,2,0,0,1,9,18.44s0-.07.07-.1.07,0,.11-.08l15.2-15.2a3.72,3.72,0,0,1,5.13,0,3.63,3.63,0,0,1,0,5.14L11.07,26.62h0a5.3,5.3,0,0,1-7.51,0,5.32,5.32,0,0,1,0-7.51L17.88,4.79a1,1,0,1,0-1.42-1.42L2.08,17.75a0,0,0,0,1,0,0A7.31,7.31,0,0,0,12.4,28.11l0,0L30.91,9.61A5.64,5.64,0,0,0,30.91,1.65Z"/></g></g></svg>