<svg xmlns="http://www.w3.org/2000/svg" xmlns:xlink="http://www.w3.org/1999/xlink" viewBox="0 0 60.05 58.41"><defs><style>.cls-1,.cls-2{stroke:#fff;stroke-miterlimit:10;}.cls-1{stroke-width:2px;fill:url(#gradient_azul);}.cls-2{stroke-width:1.01px;fill:url(#gradient_azul-2);}.cls-3{fill:#fff;}.cls-4{fill:none;}.cls-5{fill:url(#gradient_azul-3);}.cls-6{fill:url(#gradient_azul-6);}.cls-7{fill:url(#radial-gradient);}.cls-8{fill:url(#gradient_azul-10);}</style><radialGradient id="gradient_azul" cx="2249.2" cy="16.74" r="40.51" gradientTransform="matrix(0.98, -0.19, -0.19, -0.98, -2189.34, 488.1)" gradientUnits="userSpaceOnUse"><stop offset="0.33" stop-color="#1eafe9"/><stop offset="1" stop-color="#216fff"/></radialGradient><radialGradient id="gradient_azul-2" cx="2241.45" cy="18.11" r="53.71" gradientTransform="matrix(-1, 0, 0, 1, 2283.89, 0)" xlink:href="#gradient_azul"/><radialGradient id="gradient_azul-3" cx="45" cy="-10.59" r="37.1" gradientTransform="matrix(1, 0, 0, 1, 0, 0)" xlink:href="#gradient_azul"/><radialGradient id="gradient_azul-6" cx="14.31" cy="11.37" r="66.29" gradientTransform="matrix(1, 0, 0, 1, 0, 0)" xlink:href="#gradient_azul"/><radialGradient id="radial-gradient" cx="45" cy="-10.59" r="37.1" gradientUnits="userSpaceOnUse"><stop offset="0.33" stop-color="#1eafe9"/><stop offset="0.66" stop-color="#1f8ef2"/><stop offset="1" stop-color="#216fff"/></radialGradient><radialGradient id="gradient_azul-10" cx="48.6" cy="3.86" r="32.57" gradientTransform="matrix(1, 0, 0, 1, 0, 0)" xlink:href="#gradient_azul"/></defs><title>ATTACH ILLUSTRATION</title><g id="Layer_2" data-name="Layer 2"><g id="Layer_3" data-name="Layer 3"><rect class="cls-1" x="4.51" y="7.94" width="39.07" height="46.36" rx="3.03" ry="3.03" transform="translate(41.77 66.21) rotate(-169.12)"/><rect class="cls-2" x="14.46" y="12.82" width="37.8" height="45.09" rx="3.03" ry="3.03"/><rect class="cls-3" x="28.32" y="49.94" width="10.06" height="4" rx="2" ry="2" transform="translate(66.71 103.88) rotate(-180)"/><rect class="cls-3" x="19.86" y="35.44" width="27" height="4" rx="2" ry="2" transform="translate(66.71 74.88) rotate(180)"/><rect class="cls-3" x="19.86" y="40.44" width="27" height="4" rx="2" ry="2" transform="translate(66.71 84.88) rotate(180)"/><rect class="cls-3" x="19.86" y="30.44" width="27" height="4" rx="2" ry="2" transform="translate(66.71 64.88) rotate(180)"/><rect class="cls-3" x="19.86" y="20.94" width="13.47" height="4" rx="2" ry="2" transform="translate(53.18 45.88) rotate(180)"/><path class="cls-4" d="M57.11,29a3.87,3.87,0,0,0,.2-5.47l-5.06-5.06V29.64A4,4,0,0,0,57.11,29Z"/><path class="cls-4" d="M42.89,9l-.16-.16a2,2,0,0,0-3.43,1.59l5.32,1a3,3,0,0,1,1.31.62L42.87,9Z"/><path class="cls-4" d="M46.59,12.82h.06l-.27-.28A2.92,2.92,0,0,1,46.59,12.82Z"/><path class="cls-5" d="M34.6,3.6a5.76,5.76,0,0,1,8.11-.4l13.6,13.6a.9.9,0,0,0,.61.25.86.86,0,0,0,.6-1.47L43.93,2a7.49,7.49,0,0,0-10.55.41,7.94,7.94,0,0,0-2.33,6.47l1.81.35A6.16,6.16,0,0,1,34.6,3.6Z"/><path class="cls-5" d="M59.07,22.93l-6.82-6.88v2.37l5.06,5.06a3.87,3.87,0,0,1-.2,5.47,4,4,0,0,1-4.86.69v1.9a5.35,5.35,0,0,0,1.94.37,5.9,5.9,0,0,0,4.14-1.74A5.66,5.66,0,0,0,59.07,22.93Z"/><path class="cls-5" d="M39.87,8.86a2,2,0,0,1,2.86,0l.16.16,0,0,3.06,3.05a3.82,3.82,0,0,1,.45.45l.27.28h2.4L44.54,8.27v0l-.61-.6a3.73,3.73,0,0,0-5.28,0,3.67,3.67,0,0,0-1.08,2.47l1.72.33A2,2,0,0,1,39.87,8.86Z"/><polygon class="cls-6" points="52.25 18.42 52.25 16.05 49.05 12.82 46.65 12.82 52.25 18.42"/><polygon class="cls-5" points="52.25 18.42 52.25 16.05 49.05 12.82 46.65 12.82 52.25 18.42"/><path class="cls-6" d="M38.66,12.93l.4.41.2.2L49.61,23.88a.83.83,0,0,0,1.21,0,.85.85,0,0,0,0-1.21L40.48,12.32l-.2-.2-.41-.4a2,2,0,0,1-.57-1.27l-1.72-.33A3.67,3.67,0,0,0,38.66,12.93Z"/><path class="cls-7" d="M38.66,12.93l.4.41.2.2L49.61,23.88a.83.83,0,0,0,1.21,0,.85.85,0,0,0,0-1.21L40.48,12.32l-.2-.2-.41-.4a2,2,0,0,1-.57-1.27l-1.72-.33A3.67,3.67,0,0,0,38.66,12.93Z"/><path class="cls-6" d="M45.93,12.09l.45.45A3.82,3.82,0,0,0,45.93,12.09Z"/><path class="cls-8" d="M45.93,12.09l.45.45A3.82,3.82,0,0,0,45.93,12.09Z"/></g></g></svg>