<svg xmlns="http://www.w3.org/2000/svg" viewBox="0 0 25.33 27.82"><defs><style>.cls-1{fill:#007fff;}</style></defs><title>ATTACH ON</title><g id="Layer_2" data-name="Layer 2"><g id="Layer_3" data-name="Layer 3"><path class="cls-1" d="M24.47,20,11.8,7.21h0l-.53-.53a3.26,3.26,0,0,0-4.61,4.6l9.55,9.55a.75.75,0,0,0,1.06,0,.75.75,0,0,0,0-1.06L7.74,10.21a1.75,1.75,0,0,1,2.48-2.48L22.94,20.47a3.51,3.51,0,0,1-5,5L2.79,10.21a5,5,0,0,1,.35-7.07,5,5,0,0,1,7.07-.35L22.06,14.64a.74.74,0,0,0,.53.22.71.71,0,0,0,.53-.22.74.74,0,0,0,0-1.06L11.27,1.73a6.52,6.52,0,0,0-9.19.35A6.55,6.55,0,0,0,1.47,11L16.93,26.47h0l.08.08a.41.41,0,0,0,.11.07,4.62,4.62,0,0,0,3.09,1.19,5.11,5.11,0,0,0,3.61-1.52A4.92,4.92,0,0,0,24.47,20Z"/></g></g></svg>