<svg xmlns="http://www.w3.org/2000/svg" viewBox="0 0 32 24"><defs><style>.cls-1{fill:#fff;}.cls-2{fill:#f59220;}.cls-3{fill:#007fff;}.cls-4{fill:#cce3f1;}</style></defs><title>BUSINESS INFORMATION ON</title><g id="Layer_2" data-name="Layer 2"><g id="Layer_3" data-name="Layer 3"><path class="cls-1" d="M24.47,6H7.53A.53.53,0,0,0,7,6.53V23h6.5V19h5v4H25V6.53A.53.53,0,0,0,24.47,6ZM14,8.5h1.5V7h1V8.5H18v1H16.5V11h-1V9.5H14Z"/><polygon class="cls-2" points="16.5 8.5 16.5 7 15.5 7 15.5 8.5 14 8.5 14 9.5 15.5 9.5 15.5 11 16.5 11 16.5 9.5 18 9.5 18 8.5 16.5 8.5"/><path class="cls-3" d="M18.5,23V19h-5v4H7V6.53A.53.53,0,0,1,7.53,6H24.47a.53.53,0,0,1,.53.53V23ZM19,5H7.53A1.54,1.54,0,0,0,6,6.53V23H3V1.5A.5.5,0,0,1,3.5,1h8a.5.5,0,0,1,.5.5V4h1V1.5A1.5,1.5,0,0,0,11.5,0h-8A1.5,1.5,0,0,0,2,1.5V23H.5a.5.5,0,0,0,0,1h31a.5.5,0,0,0,0-1H30V1.5A1.5,1.5,0,0,0,28.5,0h-8A1.5,1.5,0,0,0,19,1.5V4h1V1.5a.5.5,0,0,1,.5-.5h8a.5.5,0,0,1,.5.5V23H26V6.53A1.54,1.54,0,0,0,24.47,5Z"/><path class="cls-4" d="M12,4V1.5a.5.5,0,0,0-.5-.5h-8a.5.5,0,0,0-.5.5V23H6V6.53A1.54,1.54,0,0,1,7.53,5H13V4H12Z"/><path class="cls-4" d="M28.5,1h-8a.5.5,0,0,0-.5.5V4H19V5h5.47A1.54,1.54,0,0,1,26,6.53V23h3V1.5A.5.5,0,0,0,28.5,1Z"/><rect class="cls-3" x="8" y="12" width="16" height="2"/><rect class="cls-3" x="8" y="15.5" width="16" height="2"/></g></g></svg>