<svg xmlns="http://www.w3.org/2000/svg" xmlns:xlink="http://www.w3.org/1999/xlink" viewBox="0 0 65.75 41.05"><defs><style>.cls-1{isolation:isolate;}.cls-2,.cls-5{opacity:0.9;}.cls-3{fill:url(#radial-gradient);}.cls-4{fill:#fff;}.cls-5{mix-blend-mode:multiply;}.cls-6{fill:url(#radial-gradient-2);}</style><radialGradient id="radial-gradient" cx="263.51" cy="-216.77" r="30.03" gradientTransform="translate(-246.33 194.41) rotate(6)" gradientUnits="userSpaceOnUse"><stop offset="0" stop-color="#00e198"/><stop offset="0.67" stop-color="#1cd561"/></radialGradient><radialGradient id="radial-gradient-2" cx="-3787.63" cy="214.75" r="17.92" gradientTransform="matrix(-0.99, 0.1, 0.1, 0.99, -3772.3, 198.22)" xlink:href="#radial-gradient"/></defs><title>CHAT ILLUSTRATION</title><g class="cls-1"><g id="Layer_2" data-name="Layer 2"><g id="Layer_3" data-name="Layer 3"><g class="cls-2"><path class="cls-3" d="M49.89.94l-8-.84a17.7,17.7,0,0,0-11.5,32.44l-.71,6.74a1.46,1.46,0,0,0,2.38,1.4l6.11-5.36h0l8,.85A17.71,17.71,0,0,0,49.89.94Z"/><circle class="cls-4" cx="44.83" cy="18.22" r="3.22"/><circle class="cls-4" cx="56.04" cy="19.39" r="3.22"/><circle class="cls-4" cx="33.63" cy="17.04" r="3.22"/></g><g class="cls-5"><path class="cls-6" d="M9.85,11.67l5-.53A11,11,0,0,1,22,31.3l.44,4.18a.91.91,0,0,1-1.48.87L17.13,33h0l-5,.53a11,11,0,0,1-2.3-21.88Z"/><circle class="cls-4" cx="12.99" cy="22.4" r="2"/><circle class="cls-4" cx="6.03" cy="23.13" r="2"/><circle class="cls-4" cx="19.95" cy="21.67" r="2"/></g></g></g></g></svg>