<svg xmlns="http://www.w3.org/2000/svg" viewBox="0 0 24.15 25.81"><defs><style>.cls-1{fill:gray;}</style></defs><title>Asset 144</title><g id="Layer_2" data-name="Layer 2"><g id="Layer_3" data-name="Layer 3"><path class="cls-1" d="M12.08,11.75A5.88,5.88,0,1,1,18,5.88,5.89,5.89,0,0,1,12.08,11.75ZM12.08,1A4.88,4.88,0,1,0,17,5.88,4.89,4.89,0,0,0,12.08,1Z"/><path class="cls-1" d="M21.17,25.81H3a3.08,3.08,0,0,1-3-3.16C0,16.71,5.08,12.4,12.08,12.4s12.07,4.31,12.07,10.25A3.08,3.08,0,0,1,21.17,25.81ZM12.08,13.4C5.66,13.4,1,17.29,1,22.65a2.08,2.08,0,0,0,2,2.16H21.17a2.08,2.08,0,0,0,2-2.16C23.15,17.29,18.49,13.4,12.08,13.4Z"/></g></g></svg>