<svg xmlns="http://www.w3.org/2000/svg" viewBox="0 0 28 28"><defs><style>.cls-1{fill:gray;}</style></defs><title>Current ubication</title><g id="Layer_2" data-name="Layer 2"><g id="Layer_3" data-name="Layer 3"><path class="cls-1" d="M27.05,13h-2.6A10.49,10.49,0,0,0,15,3.55V1A.94.94,0,0,0,14.05,0H14A.94.94,0,0,0,13,1v2.6A10.5,10.5,0,0,0,3.55,13H1a1,1,0,0,0,0,2H3.55A10.5,10.5,0,0,0,13,24.45v2.6A.94.94,0,0,0,14,28h.1a.94.94,0,0,0,.95-.95v-2.6A10.49,10.49,0,0,0,24.45,15h2.6a.94.94,0,0,0,.95-.95V14A.94.94,0,0,0,27.05,13ZM14,23.5h0A9.5,9.5,0,1,1,23.5,14,9.51,9.51,0,0,1,14,23.5Z"/><path class="cls-1" d="M19,13.5H17a3,3,0,0,0-2.45-2.45v-2a.5.5,0,0,0-1,0v2a3,3,0,0,0-2.45,2.45h-2a.5.5,0,0,0,0,1h2A3,3,0,0,0,13.5,17v2a.5.5,0,1,0,1,0V17A3,3,0,0,0,17,14.5h2a.5.5,0,1,0,0-1ZM14,16a2,2,0,1,1,2-2A2,2,0,0,1,14,16Z"/></g></g></svg>