<svg xmlns="http://www.w3.org/2000/svg" viewBox="0 0 23.73 31.98"><defs><style>.cls-1{fill:#007fff;}</style></defs><title>DELETE ON</title><g id="Layer_2" data-name="Layer 2"><g id="Layer_3" data-name="Layer 3"><path class="cls-1" d="M23.35,8.07a1.29,1.29,0,0,0-.17-.16,1.58,1.58,0,0,0,.12-.15,1.51,1.51,0,0,0-.09-1.55L21.44,3.63A1.49,1.49,0,0,0,20.21,3H16.36V1.48A1.49,1.49,0,0,0,14.86,0h-6a1.49,1.49,0,0,0-1.5,1.48V3H3.52a1.5,1.5,0,0,0-1.24.65L.52,6.21A1.51,1.51,0,0,0,.43,7.76l.11.15-.17.16A1.52,1.52,0,0,0,0,9.25L2.76,30.67A1.49,1.49,0,0,0,4.24,32H19.48A1.49,1.49,0,0,0,21,30.67L23.72,9.25A1.49,1.49,0,0,0,23.35,8.07Zm-15-6.59A.5.5,0,0,1,8.86,1h6a.49.49,0,0,1,.5.48V3h-7Zm-7,5.29L3.11,4.2A.49.49,0,0,1,3.52,4H20.21a.49.49,0,0,1,.41.22l1.76,2.57a.51.51,0,0,1-.41.79H1.76a.51.51,0,0,1-.41-.79ZM20,30.54a.51.51,0,0,1-.5.44H4.24a.5.5,0,0,1-.49-.44L1,9.12a.52.52,0,0,1,.13-.39.47.47,0,0,1,.37-.17H22.23a.48.48,0,0,1,.37.17.47.47,0,0,1,.12.39Z"/><path class="cls-1" d="M19.77,11.29a.51.51,0,0,0-.56.44l-2,16.67a.51.51,0,0,0,.44.56h.06a.49.49,0,0,0,.49-.44l2-16.67A.51.51,0,0,0,19.77,11.29Z"/><path class="cls-1" d="M14.84,11.29a.48.48,0,0,0-.53.47l-1,16.67a.5.5,0,0,0,.47.53h0a.49.49,0,0,0,.49-.47l1-16.67A.51.51,0,0,0,14.84,11.29Z"/><path class="cls-1" d="M8.89,11.29a.5.5,0,0,0-.47.53l1,16.67a.5.5,0,0,0,.5.47h0a.5.5,0,0,0,.47-.53l-1-16.67A.49.49,0,0,0,8.89,11.29Z"/><path class="cls-1" d="M4,11.29a.5.5,0,0,0-.44.56l2,16.67A.51.51,0,0,0,6,29H6a.51.51,0,0,0,.44-.56l-2-16.67A.5.5,0,0,0,4,11.29Z"/></g></g></svg>