<svg xmlns="http://www.w3.org/2000/svg" viewBox="0 0 32 27.6"><defs><style>.cls-1{fill:#007fff;}.cls-2{fill:#f59220;}</style></defs><title>DISCLOUSURE INFORMATION</title><g id="Layer_2" data-name="Layer 2"><g id="Layer_3" data-name="Layer 3"><path class="cls-1" d="M29,5.6H22A2,2,0,0,1,20.59,5l-.54-.54a3,3,0,0,0-.87-.59,8.41,8.41,0,0,1,.69,1.83h0A3,3,0,0,0,22,6.6h7a2,2,0,0,1,2,2v16a2,2,0,0,1-2,2H3a2,2,0,0,1-2-2V11.1S1,11,1,11A1.49,1.49,0,0,1,2.4,9.61c0-.17,0-.33-.07-.5s0-.33-.05-.49A2.39,2.39,0,0,0,1,9.11V6.6a2,2,0,0,1,1.89-2,8.57,8.57,0,0,1,.49-1H3a3,3,0,0,0-3,3v18a3,3,0,0,0,3,3H29a3,3,0,0,0,3-3V8.6A3,3,0,0,0,29,5.6Z"/><path class="cls-1" d="M29,11s0,.06,0,.1a.5.5,0,1,0,1,0,2.5,2.5,0,0,0-2.5-2.5H20.14c0,.16,0,.33-.05.5l0,.2c0,.1,0,.2,0,.3H27.5A1.5,1.5,0,0,1,29,11Z"/><path class="cls-1" d="M4.62,10.31c0,.1.06.19.1.29h13c.07-.17.12-.34.18-.5s.09-.34.13-.5H4.4c0,.16.09.33.14.5A1.8,1.8,0,0,0,4.62,10.31Z"/><path class="cls-1" d="M16.23,3.1,16.16,3c-.15-.15-.31-.28-.46-.41h-9A5.74,5.74,0,0,0,6.26,3l-.08.09a5.24,5.24,0,0,0-.44.5H16.67A4.14,4.14,0,0,0,16.23,3.1Z"/><path class="cls-2" d="M18.46,13.21l-.7-.67,0,0A7.88,7.88,0,0,0,19,9.6c0-.16.05-.33.08-.49h0l.06-.5c0-.21,0-.43,0-.64a7.86,7.86,0,0,0-.72-3.29,7.44,7.44,0,0,0-.59-1.07,7.74,7.74,0,0,0-1-1.27,8,8,0,0,0-11.25,0,7.74,7.74,0,0,0-1,1.27A7.46,7.46,0,0,0,4,4.6,7.87,7.87,0,0,0,3.24,8c0,.21,0,.43,0,.64l.06.5c0,.16,0,.33.08.5a9,9,0,0,0,.25.89,8,8,0,0,0,7.55,5.43,7.91,7.91,0,0,0,5.62-2.33l.26-.28,0,0,.66.71,8.91,9.55L28,22.28Zm-12.2-.3A6.93,6.93,0,0,1,4.72,10.6c0-.1-.07-.19-.1-.29a1.8,1.8,0,0,1-.08-.21c0-.17-.1-.34-.14-.5s-.07-.34-.1-.5,0-.34-.06-.5,0-.42,0-.64A7,7,0,0,1,5.07,4.6a6,6,0,0,1,.67-1,5.24,5.24,0,0,1,.44-.5L6.26,3a5.74,5.74,0,0,1,.45-.41,7,7,0,0,1,9,0c.15.13.31.26.46.41l.07.09a4.14,4.14,0,0,1,.44.5,6,6,0,0,1,.67,1,7,7,0,0,1,.66,5c0,.16-.08.33-.13.5s-.11.33-.18.5A7,7,0,0,1,6.26,12.91Z"/></g></g></svg>