<svg xmlns="http://www.w3.org/2000/svg" viewBox="0 0 24 30"><defs><style>.cls-1{fill:#fff;}.cls-2{fill:#e5e5e5;}.cls-3{fill:#4ca5ff;}</style></defs><title>DOC</title><g id="Layer_2" data-name="Layer 2"><g id="Layer_3" data-name="Layer 3"><path class="cls-1" d="M2.18,29.5A1.68,1.68,0,0,1,.5,27.82V2.18A1.68,1.68,0,0,1,2.18.5H12.62A1.65,1.65,0,0,1,13.81,1l9.2,9.2a1.65,1.65,0,0,1,.49,1.19V27.82a1.68,1.68,0,0,1-1.68,1.68Z"/><path class="cls-2" d="M12.62,1a1.21,1.21,0,0,1,.84.35l9.19,9.19a1.15,1.15,0,0,1,.35.84V27.82A1.18,1.18,0,0,1,21.82,29H2.18A1.18,1.18,0,0,1,1,27.82V2.18A1.18,1.18,0,0,1,2.18,1H12.62m0-1H2.18A2.19,2.19,0,0,0,0,2.18V27.82A2.19,2.19,0,0,0,2.18,30H21.82A2.19,2.19,0,0,0,24,27.82V11.38a2.2,2.2,0,0,0-.64-1.55L14.17.64A2.2,2.2,0,0,0,12.62,0Z"/><path class="cls-3" d="M17.09,12.93,14.86,20.1H14l-1.81-5.47c0-.05,0-.11-.05-.17a1.8,1.8,0,0,0,0-.19c0,.07,0,.13,0,.19l-.06.17L10.15,20.1H9.28L7,12.93h.81a.32.32,0,0,1,.22.07.26.26,0,0,1,.11.16l1.48,5c0,.09.05.19.07.29s0,.21.06.33c0-.12.05-.23.07-.33s.06-.2.09-.29l1.68-5a.36.36,0,0,1,.12-.16.38.38,0,0,1,.21-.07h.28a.28.28,0,0,1,.21.07.4.4,0,0,1,.12.16l1.68,5a2.29,2.29,0,0,1,.08.28,3,3,0,0,1,.07.32l.06-.32a2.29,2.29,0,0,1,.07-.28l1.48-5a.33.33,0,0,1,.11-.16.32.32,0,0,1,.22-.07Z"/></g></g></svg>