<svg xmlns="http://www.w3.org/2000/svg" viewBox="0 0 28 28"><defs><style>.cls-1{fill:#007fff;}</style></defs><title>DOWNLOAD ON</title><g id="Layer_2" data-name="Layer 2"><g id="Layer_3" data-name="Layer 3"><path class="cls-1" d="M13.29,21.07a1,1,0,0,0,1.42,0l5.46-5.46a.5.5,0,1,0-.71-.71l-5,5V.49a.5.5,0,0,0-1,0V19.86l-5-5a.5.5,0,1,0-.71.71Z"/><path class="cls-1" d="M27.5,14a.5.5,0,0,0-.5.5V25a2,2,0,0,1-2,2H3a2,2,0,0,1-2-2V14.5A.5.5,0,0,0,.5,14a.5.5,0,0,0-.5.5V25a3,3,0,0,0,3,3H25a3,3,0,0,0,3-3V14.5A.5.5,0,0,0,27.5,14Z"/></g></g></svg>