<svg xmlns="http://www.w3.org/2000/svg" viewBox="0 0 28 28"><defs><style>.cls-1{fill:#a0a0a0;}</style></defs><title>DOWNLOAD OFF</title><g id="Layer_2" data-name="Layer 2"><g id="Layer_3" data-name="Layer 3"><path class="cls-1" d="M20.17,14.9a.51.51,0,0,0-.71,0l-5,5V.49a.5.5,0,0,0-1,0V19.86l-5-5a.5.5,0,1,0-.71.71l5.46,5.46a1,1,0,0,0,1.42,0l5.46-5.46A.51.51,0,0,0,20.17,14.9Z"/><path class="cls-1" d="M25,28H3a3,3,0,0,1-3-3V14.5A.5.5,0,0,1,.5,14a.5.5,0,0,1,.5.5V25a2,2,0,0,0,2,2H25a2,2,0,0,0,2-2V14.5a.5.5,0,0,1,1,0V25A3,3,0,0,1,25,28Z"/></g></g></svg>