<svg xmlns="http://www.w3.org/2000/svg" viewBox="0 0 28 27.98"><defs><style>.cls-1{fill:#a0a0a0;}</style></defs><title>EDIT OFF</title><g id="Layer_2" data-name="Layer 2"><g id="Layer_3" data-name="Layer 3"><path class="cls-1" d="M23.21,0A1.69,1.69,0,0,0,22,.48L0,22.5V28H5.49l22-22a1.69,1.69,0,0,0,0-2.4L24.41.48A1.69,1.69,0,0,0,23.21,0Zm1.2,7.65a.42.42,0,0,0-.09-.14l-4-4,2.36-2.36a.7.7,0,0,1,.49-.2.74.74,0,0,1,.5.2L26.8,4.28a.7.7,0,0,1,0,1L24.41,7.65ZM1,27V22.91L19.65,4.26l4,4a.43.43,0,0,0,.13.09L5.07,27Z"/></g></g></svg>