<svg xmlns="http://www.w3.org/2000/svg" viewBox="0 0 32 32"><defs><style>.cls-1{fill:#007fff;}</style></defs><title>Emoji</title><g id="Layer_2" data-name="Layer 2"><g id="Layer_3" data-name="Layer 3"><path class="cls-1" d="M16,1A15,15,0,1,1,1,16,15,15,0,0,1,16,1m0-1A16,16,0,1,0,32,16,16,16,0,0,0,16,0Z"/><path class="cls-1" d="M16,28A11,11,0,0,1,5,17a.5.5,0,0,1,1,0A10,10,0,0,0,16,27a.5.5,0,0,1,0,1Z"/><circle class="cls-1" cx="10" cy="12" r="3"/><circle class="cls-1" cx="22" cy="12" r="3"/></g></g></svg>