<svg xmlns="http://www.w3.org/2000/svg" viewBox="0 0 24 32"><defs><style>.cls-1{fill:#a0a0a0;}</style></defs><title>EXPLANATION OFF</title><g id="Layer_2" data-name="Layer 2"><g id="Layer_3" data-name="Layer 3"><path class="cls-1" d="M21,2H14.82A3,3,0,0,0,9.18,2H3.05A3.06,3.06,0,0,0,0,5.05V29A3.06,3.06,0,0,0,3.05,32H21A3.06,3.06,0,0,0,24,29V5.05A3.06,3.06,0,0,0,21,2ZM10.28,2A2,2,0,1,1,10,3,2,2,0,0,1,10.28,2ZM23,29A2.05,2.05,0,0,1,21,31H3.05A2.05,2.05,0,0,1,1,29V5.05A2.05,2.05,0,0,1,3.05,3H9a3,3,0,0,0,6,0H21A2.05,2.05,0,0,1,23,5.05Z"/><path class="cls-1" d="M18,12H6a1,1,0,0,0,0,2H18a1,1,0,0,0,0-2Z"/><path class="cls-1" d="M18,16H6a1,1,0,0,0,0,2H18a1,1,0,0,0,0-2Z"/><path class="cls-1" d="M18,20H6a1,1,0,0,0,0,2H18a1,1,0,0,0,0-2Z"/><path class="cls-1" d="M11,24H6a1,1,0,0,0,0,2h5a1,1,0,0,0,0-2Z"/></g></g></svg>