<svg xmlns="http://www.w3.org/2000/svg" xmlns:xlink="http://www.w3.org/1999/xlink" viewBox="0 0 61.4 51.99"><defs><style>.cls-1{isolation:isolate;}.cls-2{fill:url(#radial-gradient);}.cls-3{mix-blend-mode:multiply;fill:url(#radial-gradient-2);}</style><radialGradient id="radial-gradient" cx="45.62" cy="-3.5" r="59.39" gradientUnits="userSpaceOnUse"><stop offset="0" stop-color="#ffbcc8"/><stop offset="0.31" stop-color="#ff2160"/><stop offset="1" stop-color="#b10e40"/></radialGradient><radialGradient id="radial-gradient-2" cx="20.95" cy="7.85" r="45.13" xlink:href="#radial-gradient"/></defs><title>EXPLENATION ILLUSTRATION</title><g class="cls-1"><g id="Layer_2" data-name="Layer 2"><g id="Layer_3" data-name="Layer 3"><path class="cls-2" d="M57.72,5.54l-9.6-1a4.82,4.82,0,0,0-9.45-1l-9.61-1a4.11,4.11,0,0,0-4.51,3.66l-4,38.27A4.11,4.11,0,0,0,24.18,49l28.66,3a4.11,4.11,0,0,0,4.52-3.65l4-38.27A4.1,4.1,0,0,0,57.72,5.54ZM43.65,1.63a3.21,3.21,0,0,1,2.83,2.72,3.21,3.21,0,1,1-6.37.14,3.64,3.64,0,0,1,.19-.79A3.23,3.23,0,0,1,43.65,1.63ZM38,39.89l-8-.84a1.61,1.61,0,0,1-1.43-1.77h0a1.61,1.61,0,0,1,1.77-1.44l8,.85a1.61,1.61,0,0,1,1.44,1.77h0A1.62,1.62,0,0,1,38,39.89Zm11.88-5.23-19.22-2a1.61,1.61,0,0,1-1.43-1.77h0A1.61,1.61,0,0,1,31,29.44l19.21,2a1.61,1.61,0,0,1,1.44,1.77h0A1.62,1.62,0,0,1,49.89,34.66Zm.67-6.4-19.21-2a1.62,1.62,0,0,1-1.44-1.77h0A1.62,1.62,0,0,1,31.68,23l19.22,2a1.62,1.62,0,0,1,1.43,1.77h0A1.61,1.61,0,0,1,50.56,28.26Zm.67-6.41L32,19.83a1.59,1.59,0,0,1-1.43-1.77h0a1.61,1.61,0,0,1,1.77-1.43l19.21,2A1.6,1.6,0,0,1,53,20.42h0A1.61,1.61,0,0,1,51.23,21.85Z"/><path class="cls-3" d="M25.39,39.81,22.89,16a2.55,2.55,0,0,0-2.8-2.27l-6,.62A3,3,0,0,0,8.25,15l-6,.63A2.55,2.55,0,0,0,0,18.44l2.5,23.77a2.55,2.55,0,0,0,2.8,2.27l17.81-1.87A2.56,2.56,0,0,0,25.39,39.81ZM11,13.21A2,2,0,0,1,13.1,14.5a2.09,2.09,0,0,1,.13.49,2,2,0,1,1-4,.42,1.75,1.75,0,0,1,0-.51A2,2,0,0,1,11,13.21ZM6.11,23.78,18,22.53a1,1,0,0,1,1.1.89h0a1,1,0,0,1-.89,1.1L6.32,25.77a1,1,0,0,1-1.1-.89h0A1,1,0,0,1,6.11,23.78Zm.41,4,11.94-1.25a1,1,0,0,1,1.1.89h0a1,1,0,0,1-.89,1.1L6.73,29.75a1,1,0,0,1-1.1-.89h0A1,1,0,0,1,6.52,27.76Zm0,9.06h0a1,1,0,0,1,.89-1.1l5-.53a1,1,0,0,1,1.1.89h0a1,1,0,0,1-.89,1.1l-5,.53A1,1,0,0,1,6.47,36.82Zm-.42-4h0a1,1,0,0,1,.89-1.1l11.94-1.26a1,1,0,0,1,1.1.89h0a1,1,0,0,1-.89,1.1L7.15,33.73A1,1,0,0,1,6.05,32.84Z"/></g></g></g></svg>