<svg xmlns="http://www.w3.org/2000/svg" viewBox="0 0 24 32"><defs><style>.cls-1{fill:#a0a0a0;}</style></defs><title>SHARE OFF_1</title><g id="Layer_2" data-name="Layer 2"><g id="Layer_3" data-name="Layer 3"><path class="cls-1" d="M24,9a3.05,3.05,0,0,0-.77-1.58L17.11,1A3,3,0,0,0,14.92,0H3A3,3,0,0,0,0,3V29a3,3,0,0,0,3,3H21a3,3,0,0,0,3-3V9Zm-1.5-.9a2,2,0,0,1,.48.9H18.18A2.68,2.68,0,0,1,15.5,6.34V1.1a2,2,0,0,1,.88.53ZM23,29a2,2,0,0,1-2,2H3a2,2,0,0,1-2-2V3A2,2,0,0,1,3,1H14.5V6.34A3.68,3.68,0,0,0,18.18,10H23Z"/></g></g></svg>