<svg xmlns="http://www.w3.org/2000/svg" viewBox="0 0 28.84 26.04"><defs><style>.cls-1{fill:#a0a0a0;}</style></defs><title>FINDING OFF</title><g id="Layer_2" data-name="Layer 2"><g id="Layer_3" data-name="Layer 3"><path class="cls-1" d="M24.79,26H4A4,4,0,0,1,.55,20L10.92,2a4,4,0,0,1,3.5-2h0a4,4,0,0,1,3.49,2L28.29,20A4,4,0,0,1,24.79,26ZM14.42,1a3,3,0,0,0-2.63,1.52l-10.38,18A3,3,0,0,0,4,25H24.79a3,3,0,0,0,2.63-4.55l-10.37-18A3,3,0,0,0,14.42,1Z"/><rect class="cls-1" x="13.53" y="7.47" width="2" height="10" rx="1" ry="1"/><rect class="cls-1" x="13.03" y="18.97" width="3" height="3" rx="1.5" ry="1.5"/></g></g></svg>