<svg xmlns="http://www.w3.org/2000/svg" viewBox="0 0 28 22.5"><defs><style>.cls-1{fill:#e18b29;}</style></defs><title>Folder</title><g id="Layer_2" data-name="Layer 2"><g id="Layer_3" data-name="Layer 3"><path class="cls-1" d="M25.78,22.5H2.22A2.23,2.23,0,0,1,0,20.28V6.22A2.24,2.24,0,0,1,2.17,4l5.26-.11a1.22,1.22,0,0,0,.85-.38L11,.69A2.22,2.22,0,0,1,12.59,0H25.78A2.23,2.23,0,0,1,28,2.22V20.28A2.23,2.23,0,0,1,25.78,22.5ZM12.59,1a1.23,1.23,0,0,0-.89.38L9,4.2a2.23,2.23,0,0,1-1.56.69L2.19,5A1.23,1.23,0,0,0,1,6.22V20.28A1.22,1.22,0,0,0,2.22,21.5H25.78A1.22,1.22,0,0,0,27,20.28V2.22A1.22,1.22,0,0,0,25.78,1Z"/></g></g></svg>