<svg xmlns="http://www.w3.org/2000/svg" viewBox="0 0 29.63 23.74"><defs><style>.cls-1{fill:#e5e5e5;}.cls-2{fill:#e89f56;}</style></defs><title>Folder 2</title><g id="Layer_2" data-name="Layer 2"><g id="Layer_3" data-name="Layer 3"><path class="cls-1" d="M27.41,23.74H2.21A2.21,2.21,0,0,1,0,21.53V6.5A2.23,2.23,0,0,1,2.16,4.28l5.63-.12a1.47,1.47,0,0,0,1-.46l2.89-3A2.23,2.23,0,0,1,13.3,0H27.41a2.22,2.22,0,0,1,2.22,2.21V21.53A2.22,2.22,0,0,1,27.41,23.74ZM13.3.75a1.47,1.47,0,0,0-1.06.45l-2.88,3a2.29,2.29,0,0,1-1.55.69L2.18,5A1.46,1.46,0,0,0,.75,6.5v15A1.47,1.47,0,0,0,2.21,23h25.2a1.47,1.47,0,0,0,1.47-1.46V2.21A1.47,1.47,0,0,0,27.41.75Z"/><path class="cls-2" d="M4.24,10.53H7.48v.65H5v2H7.29v.64H5v2.72H4.24Z"/><path class="cls-2" d="M12.19,14.35A2.1,2.1,0,0,1,10,16.64,2.05,2.05,0,0,1,8,14.42a2.11,2.11,0,0,1,2.14-2.3A2,2,0,0,1,12.19,14.35Zm-3.42,0c0,.95.54,1.66,1.31,1.66s1.31-.7,1.31-1.68c0-.73-.37-1.66-1.29-1.66S8.77,13.57,8.77,14.39Z"/><path class="cls-2" d="M13.18,10.21H14v6.33h-.79Z"/><path class="cls-2" d="M19,10.21v5.22c0,.38,0,.82,0,1.11h-.71l0-.75h0a1.59,1.59,0,0,1-1.47.85A2,2,0,0,1,15,14.45a2.07,2.07,0,0,1,1.94-2.33,1.44,1.44,0,0,1,1.3.67h0V10.21ZM18.24,14a1.24,1.24,0,0,0,0-.33,1.15,1.15,0,0,0-1.13-.91c-.82,0-1.3.71-1.3,1.67S16.2,16,17.05,16a1.18,1.18,0,0,0,1.15-.94,1.22,1.22,0,0,0,0-.34Z"/><path class="cls-2" d="M20.76,14.53A1.39,1.39,0,0,0,22.24,16a2.73,2.73,0,0,0,1.2-.23l.13.56a3.34,3.34,0,0,1-1.43.27A2,2,0,0,1,20,14.45a2.1,2.1,0,0,1,2-2.33,1.83,1.83,0,0,1,1.78,2,3.12,3.12,0,0,1,0,.37ZM23.07,14A1.12,1.12,0,0,0,22,12.69,1.3,1.3,0,0,0,20.77,14Z"/><path class="cls-2" d="M24.8,13.57c0-.51,0-1,0-1.35h.69l0,.85h0a1.31,1.31,0,0,1,1.2-1,.73.73,0,0,1,.22,0v.74a1.11,1.11,0,0,0-1.32,1,2.1,2.1,0,0,0,0,.37v2.3H24.8Z"/></g></g></svg>