<svg xmlns="http://www.w3.org/2000/svg" viewBox="0 0 277.3 17.33"><defs><style>.cls-1{fill:#d6d3d6;}.cls-2{fill:#e5e5e5;}</style></defs><title>FOODER NEW</title><g id="Layer_2" data-name="Layer 2"><g id="Layer_3" data-name="Layer 3"><path class="cls-1" d="M273.55,9.45l-8.9-7.72A9.3,9.3,0,0,0,258.82,0H18.48a9.3,9.3,0,0,0-5.83,1.73L3.75,9.45C39,5.87,86.45,3.68,138.65,3.68S238.3,5.87,273.55,9.45Z"/><path class="cls-2" d="M6.84,17.33H270.46c5.34,0,8.61-3.1,5.83-5.51l-2.74-2.37c-35.25-3.58-82.7-5.77-134.9-5.77S39,5.87,3.75,9.45L1,11.82C-1.77,14.23,1.5,17.33,6.84,17.33Z"/></g></g></svg>