<svg xmlns="http://www.w3.org/2000/svg" xmlns:xlink="http://www.w3.org/1999/xlink" viewBox="0 0 34.04 34.04"><defs><style>.cls-1,.cls-2,.cls-3{fill:none;stroke-miterlimit:10;}.cls-1,.cls-3{stroke:#f0f;}.cls-1,.cls-2{stroke-width:0.05px;}.cls-2{stroke:aqua;}.cls-3{stroke-width:0.05px;}</style><symbol id="SET_GRID-32" data-name="SET_GRID-32" viewBox="0 0 34.03 34.03"><circle class="cls-1" cx="17.02" cy="17.02" r="16"/><circle class="cls-2" cx="17.01" cy="17.03" r="7"/><rect class="cls-3" x="5.05" y="1.02" width="24" height="32" rx="3.07" ry="3.07"/><path class="cls-3" d="M33,8.09V26A3.08,3.08,0,0,1,30,29H4.09A3.07,3.07,0,0,1,1,26V8.09A3.06,3.06,0,0,1,4.09,5H30A3.07,3.07,0,0,1,33,8.09Z"/><rect class="cls-2" x="3.02" y="3.03" width="28" height="27.97" rx="3" ry="3"/><line class="cls-2" x1="0.02" y1="0.02" x2="34.02" y2="34.02"/><line class="cls-2" x1="34.02" y1="0.02" x2="0.02" y2="34.02"/><line class="cls-2" x1="17.01" y1="0.02" x2="17.01" y2="34.02"/><line class="cls-2" x1="24.01" y1="0.02" x2="24.01" y2="34.02"/><line class="cls-2" x1="10.01" y1="0.02" x2="10.01" y2="34.02"/><line class="cls-2" x1="0.02" y1="17.02" x2="34.02" y2="17.02"/><line class="cls-2" x1="34.01" y1="17.02" x2="0.01" y2="17.02"/><line class="cls-2" x1="34.01" y1="24.02" x2="0.01" y2="24.02"/><line class="cls-2" x1="34.01" y1="10.02" x2="0.01" y2="10.02"/></symbol></defs><title>GRID</title><g id="Layer_2" data-name="Layer 2"><g id="Layer_2-2" data-name="Layer 2"><use id="SET_GRID-32-3" data-name="SET_GRID-32" width="34.04" height="34.04" xlink:href="#SET_GRID-32"/></g></g></svg>