<svg xmlns="http://www.w3.org/2000/svg" viewBox="0 0 24 23"><defs><style>.cls-1{fill:#007fff;}</style></defs><title>Keyboard</title><g id="Layer_2" data-name="Layer 2"><g id="Layer_3" data-name="Layer 3"><path class="cls-1" d="M21,1a2,2,0,0,1,2,2V19a2,2,0,0,1-2,2H3a2,2,0,0,1-2-2V3A2,2,0,0,1,3,1H21m0-1H3A3,3,0,0,0,0,3V19a3,3,0,0,0,3,3H21a3,3,0,0,0,3-3V3a3,3,0,0,0-3-3Z"/><path class="cls-1" d="M13.55,15.5H12.31a.5.5,0,0,1-.33-.1.63.63,0,0,1-.2-.26l-.64-1.75H7.59L7,15.14a.62.62,0,0,1-.19.25.52.52,0,0,1-.33.11H5.18L8.55,6.92h1.63Zm-2.82-3.24-1-2.85c0-.13-.11-.28-.16-.45s-.11-.36-.17-.56c0,.2-.1.39-.16.56A4.79,4.79,0,0,1,9,9.42L8,12.26Z"/><path class="cls-1" d="M14.06,10.26a3.63,3.63,0,0,1,2.53-1,2.37,2.37,0,0,1,.95.18,2,2,0,0,1,.72.48,2.16,2.16,0,0,1,.44.75,2.87,2.87,0,0,1,.15.95V15.5h-.66a.67.67,0,0,1-.32-.06.41.41,0,0,1-.18-.25l-.13-.44c-.16.13-.31.26-.45.36a3.07,3.07,0,0,1-.46.27,2.57,2.57,0,0,1-1.1.21,2.37,2.37,0,0,1-.72-.1,1.61,1.61,0,0,1-.56-.31,1.41,1.41,0,0,1-.37-.52,1.91,1.91,0,0,1-.13-.71,1.44,1.44,0,0,1,.08-.46,1.39,1.39,0,0,1,.25-.44,2,2,0,0,1,.46-.39,2.87,2.87,0,0,1,.68-.32,5.34,5.34,0,0,1,1-.22A8.64,8.64,0,0,1,17.42,12v-.35a1.37,1.37,0,0,0-.26-.91,1,1,0,0,0-.75-.29,1.91,1.91,0,0,0-.59.08,2.76,2.76,0,0,0-.42.19l-.32.19a.69.69,0,0,1-.32.08.42.42,0,0,1-.26-.08.81.81,0,0,1-.18-.19Zm3.36,2.64a8.88,8.88,0,0,0-1.07.11,2.7,2.7,0,0,0-.69.21.87.87,0,0,0-.37.29.6.6,0,0,0-.12.36.63.63,0,0,0,.23.55,1,1,0,0,0,.6.17,1.73,1.73,0,0,0,.78-.17,2.33,2.33,0,0,0,.64-.49Z"/><path class="cls-1" d="M21,1a2,2,0,0,1,2,2V20a2,2,0,0,1-2,2H3a2,2,0,0,1-2-2V3A2,2,0,0,1,3,1H21m0-1H3A3,3,0,0,0,0,3V20a3,3,0,0,0,3,3H21a3,3,0,0,0,3-3V3a3,3,0,0,0-3-3Z"/></g></g></svg>