<svg xmlns="http://www.w3.org/2000/svg" viewBox="0 0 28.37 21.08"><defs><style>.cls-1{fill:#666;}</style></defs><title>Link</title><g id="Layer_2" data-name="Layer 2"><g id="Layer_3" data-name="Layer 3"><path class="cls-1" d="M26.72,10.45l-6-6a5.81,5.81,0,0,0-6.69-1l.76.75a4.77,4.77,0,0,1,5.22,1l6,6A4.87,4.87,0,0,1,25.88,18l-.38.39A5.5,5.5,0,0,1,20,19.84a4.94,4.94,0,0,1-1.89-1.07h0l-.21-.21-1.93-1.93-.71-.71-2.1-2.1L12.26,13a4.87,4.87,0,0,1,.13-6.88l0,0-.71-.7,0,0a5.87,5.87,0,0,0-.13,8.29l2.85,2.85.72.72,1.19,1.19.84.84a6.09,6.09,0,0,0,2.54,1.53,6.51,6.51,0,0,0,6.52-1.66l.38-.39A5.88,5.88,0,0,0,26.72,10.45Z"/><path class="cls-1" d="M10.08,17A5.08,5.08,0,0,1,8,15.74l-5.6-5.6a4.87,4.87,0,0,1,.13-6.88l.77-.77a4.87,4.87,0,0,1,6.88-.13l.16.16,2.12,2.12.7.71,2.13,2.12.86.86A4.88,4.88,0,0,1,16,15.21l0,0,.71.7,0,0a5.87,5.87,0,0,0,.13-8.29L13.9,4.71,13.18,4,12.06,2.87,10.85,1.65a5.88,5.88,0,0,0-8.3.13l-.77.77a5.88,5.88,0,0,0-.13,8.3l5.6,5.59A6.09,6.09,0,0,0,9.79,18a6.4,6.4,0,0,0,4.4-.24L13.41,17A5.41,5.41,0,0,1,10.08,17Z"/></g></g></svg>