<svg xmlns="http://www.w3.org/2000/svg" viewBox="0 0 32 24"><defs><style>.cls-1{fill:#007fff;}</style></defs><title>MAIL ON</title><g id="Layer_2" data-name="Layer 2"><g id="Layer_3" data-name="Layer 3"><path class="cls-1" d="M29,0H3A3,3,0,0,0,0,3V21a3,3,0,0,0,3,3H29a3,3,0,0,0,3-3V3A3,3,0,0,0,29,0Zm0,23H3a2,2,0,0,1-2-2v-.67l8.8-8.13,4.46,4.13A2.56,2.56,0,0,0,16,17a2.52,2.52,0,0,0,1.73-.69l4.47-4.13L31,20.31V21A2,2,0,0,1,29,23ZM3,1H29a2,2,0,0,1,2,1.71l-.21.19L22.2,10.82l-.73.68-4.42,4.08a1.54,1.54,0,0,1-2.11,0L10.53,11.5l-.73-.68L1.24,2.9,1,2.72A2,2,0,0,1,3,1ZM1,4.05,9.06,11.5,1,19ZM22.94,11.5,31,4.05V19Z"/></g></g></svg>