<svg xmlns="http://www.w3.org/2000/svg" viewBox="0 0 14 30.5"><defs><style>.cls-1{fill:#007fff;}</style></defs><title>MICROPHONE ON</title><g id="Layer_2" data-name="Layer 2"><g id="Layer_3" data-name="Layer 3"><path class="cls-1" d="M7,22a4,4,0,0,0,4-4V4A4,4,0,0,0,3,4V18A4,4,0,0,0,7,22ZM4,4a3,3,0,0,1,6,0V18a3,3,0,0,1-6,0Z"/><path class="cls-1" d="M13.5,12.5a.5.5,0,0,0-.5.5v5.2a5.13,5.13,0,0,1-5.13,5.13H6.13A5.13,5.13,0,0,1,1,18.2V13a.5.5,0,0,0-.5-.5A.5.5,0,0,0,0,13v5.2a6.14,6.14,0,0,0,6.13,6.13H6.5V29.5h-4a.5.5,0,0,0,0,1h9a.5.5,0,0,0,0-1h-4V24.33h.37A6.14,6.14,0,0,0,14,18.2V13A.5.5,0,0,0,13.5,12.5Z"/></g></g></svg>