<svg xmlns="http://www.w3.org/2000/svg" viewBox="0 0 24.85 24.85"><defs><style>.cls-1{fill:#007fff;}</style></defs><title>NEW_CHAT ON</title><g id="Layer_2" data-name="Layer 2"><g id="Layer_3" data-name="Layer 3"><path class="cls-1" d="M24.42,2.56,22.3.44A1.52,1.52,0,0,0,21.24,0h0a1.54,1.54,0,0,0-1.09.45l-4.4,4.4h-12A3.77,3.77,0,0,0,0,8.61V21.1a3.76,3.76,0,0,0,3.76,3.75H16.24A3.76,3.76,0,0,0,20,21.1V9.1l4.4-4.4a1.53,1.53,0,0,0,.45-1.08A1.47,1.47,0,0,0,24.42,2.56ZM19,21.1a2.76,2.76,0,0,1-2.76,2.75H3.76A2.76,2.76,0,0,1,1,21.1V8.61A2.77,2.77,0,0,1,3.76,5.85h11L7.18,13.43,7,13.57l0,4.29,4.29,0L19,10.1Zm-8.14-4.28L8,16.85,8,14,19,3h0l2.82,2.82h0ZM22.52,5.17h0L19.69,2.34h0l1.17-1.18A.57.57,0,0,1,21.24,1h0a.53.53,0,0,1,.34.15l2.13,2.12a.48.48,0,0,1,.14.35.52.52,0,0,1-.16.37Z"/></g></g></svg>