<svg xmlns="http://www.w3.org/2000/svg" viewBox="0 0 24 30"><defs><style>.cls-1{fill:#fff;}.cls-2{fill:#e5e5e5;}.cls-3{fill:#e26280;}</style></defs><title>PDF</title><g id="Layer_2" data-name="Layer 2"><g id="Layer_3" data-name="Layer 3"><path class="cls-1" d="M2.18,29.5A1.68,1.68,0,0,1,.5,27.82V2.18A1.68,1.68,0,0,1,2.18.5H12.62A1.65,1.65,0,0,1,13.81,1l9.2,9.2a1.65,1.65,0,0,1,.49,1.19V27.82a1.68,1.68,0,0,1-1.68,1.68Z"/><path class="cls-2" d="M12.62,1a1.21,1.21,0,0,1,.84.35l9.19,9.19a1.15,1.15,0,0,1,.35.84V27.82A1.18,1.18,0,0,1,21.82,29H2.18A1.18,1.18,0,0,1,1,27.82V2.18A1.18,1.18,0,0,1,2.18,1H12.62m0-1H2.18A2.19,2.19,0,0,0,0,2.18V27.82A2.19,2.19,0,0,0,2.18,30H21.82A2.19,2.19,0,0,0,24,27.82V11.38a2.2,2.2,0,0,0-.64-1.55L14.17.64A2.2,2.2,0,0,0,12.62,0Z"/><path class="cls-3" d="M6.61,14.14a3.19,3.19,0,0,1,1,.13,1.89,1.89,0,0,1,.69.37,1.47,1.47,0,0,1,.41.58,2.11,2.11,0,0,1,.14.77,1.91,1.91,0,0,1-.15.76,1.64,1.64,0,0,1-.42.59,1.9,1.9,0,0,1-.7.39,3,3,0,0,1-.95.14h-1V20.1h-.8v-6Zm0,3.09a1.91,1.91,0,0,0,.61-.09,1.28,1.28,0,0,0,.44-.26,1.05,1.05,0,0,0,.27-.39A1.18,1.18,0,0,0,8,16a1.12,1.12,0,0,0-.36-.89,1.48,1.48,0,0,0-1.06-.32h-1v2.45Z"/><path class="cls-3" d="M15,17.12a3.4,3.4,0,0,1-.21,1.22,2.7,2.7,0,0,1-.6.94,2.49,2.49,0,0,1-.93.6,3.27,3.27,0,0,1-1.19.22H9.84v-6h2.23a3.27,3.27,0,0,1,1.19.21,2.64,2.64,0,0,1,.93.61,2.7,2.7,0,0,1,.6.94A3.4,3.4,0,0,1,15,17.12Zm-.82,0a3,3,0,0,0-.15-1,2,2,0,0,0-.43-.73,1.83,1.83,0,0,0-.66-.46,2.41,2.41,0,0,0-.87-.16H10.65v4.65h1.42a2.41,2.41,0,0,0,.87-.15,1.83,1.83,0,0,0,.66-.46A2,2,0,0,0,14,18.1,3,3,0,0,0,14.18,17.12Z"/><path class="cls-3" d="M17,14.8v2.08h2.45v.66H17V20.1h-.81v-6h3.67v.66Z"/></g></g></svg>