<svg xmlns="http://www.w3.org/2000/svg" viewBox="0 0 28 24"><defs><style>.cls-1{fill:gray;}</style></defs><title>Picture</title><g id="Layer_2" data-name="Layer 2"><g id="Layer_3" data-name="Layer 3"><path class="cls-1" d="M26.5,0H1.5A1.5,1.5,0,0,0,0,1.5v21A1.5,1.5,0,0,0,1.5,24h25A1.5,1.5,0,0,0,28,22.5V1.5A1.5,1.5,0,0,0,26.5,0ZM1.5,1h25a.5.5,0,0,1,.5.5V18.18l-11.11-5.8-2.67,2.87L9.12,8.49,1,18.13V1.5A.5.5,0,0,1,1.5,1Zm25,22H1.5a.5.5,0,0,1-.5-.5V19.68L9,10.2l4.06,6.7,3.06-3.28L27,19.3v3.2A.5.5,0,0,1,26.5,23Z"/><path class="cls-1" d="M21,11.23a4,4,0,1,0-4-4A4,4,0,0,0,21,11.23Zm0-7a3,3,0,1,1-3,3A3,3,0,0,1,21,4.23Z"/></g></g></svg>