<svg xmlns="http://www.w3.org/2000/svg" viewBox="0 0 24 32"><defs><style>.cls-1{fill:#007fff;}.cls-2{fill:#f59220;}</style></defs><title>PRACTICE INFORMATION</title><g id="Layer_2" data-name="Layer 2"><g id="Layer_3" data-name="Layer 3"><path class="cls-1" d="M12.81,10.16l-2.12,0a11.4,11.4,0,0,1-2.4-.37,4.47,4.47,0,0,1-1-.38c-.14-.08-.44-.25-.44-.45s.09-.19.24-.23a2.3,2.3,0,0,1,.63-.07,1.52,1.52,0,0,1,.65.09,1.25,1.25,0,0,1,.35.18,1.89,1.89,0,0,0,.69.29c.64.14,1.23,0,1.31-.39s-.39-.75-1-.89a2,2,0,0,0-.63,0c-.38,0-.68.08-1.26.11a5.91,5.91,0,0,0-.84.1,1.84,1.84,0,0,0-.59.19.89.89,0,0,0-.34.33,1,1,0,0,0,.37,1.12,5.21,5.21,0,0,0,.52.41,3.28,3.28,0,0,0,.58.32l.45.2a11.17,11.17,0,0,0,3.33.69c.12,0,2,.14,2.26.18a3.37,3.37,0,0,1,1.07.35c.17.09.53.34.53.67a.73.73,0,0,1-.42.7,3,3,0,0,1-1.05.4,3.06,3.06,0,0,1-.44.09.18.18,0,0,0-.16.18l0,1.11c0,.1.08.1.12.1a5,5,0,0,0,.73-.13c.55-.12,3.08-.63,3.08-2.41S14.29,10.16,12.81,10.16Z"/><path class="cls-1" d="M12.48,26.6a6.49,6.49,0,0,1-1.54-1.36,1.92,1.92,0,0,1-.35-1.33,1.33,1.33,0,0,1,.12-.39.3.3,0,0,0,0-.2v-.88c0-.1-.06,0-.09,0a1.74,1.74,0,0,0-.19.26,2.22,2.22,0,0,0-.38,1.2,2.13,2.13,0,0,0,.52,1.51,7.23,7.23,0,0,0,1.89,1.44c.13.07.19.1.21.08s0-.15-.06-.19Z"/><path class="cls-1" d="M13.19,18.56c-.21-.11-2.13-.72-2.5-1-.18-.12-.71-.33-.6-.78s.39-.4.5-.46.18-.07.18-.17l0-1.13c0-.14-.1-.13-.16-.12-.29.08-2,.46-2,1.94,0,1.19,1.09,1.65,2,2,.22.08,1.67.57,1.88.66a2.86,2.86,0,0,1,.64.27.62.62,0,0,1,.19.44c0,.42-.24.52-.32.55s-.14,0-.14.18v.62c0,.1.12.11.17.1s1.54-.43,1.54-1.57S13.46,18.7,13.19,18.56Z"/><path class="cls-2" d="M12.32,12.49l-.38,0h-.38s-.13,0-.13.12l.08,4.08c0,.12.08.14.08.14l.35.16.35.15s.08.05.08-.05l.1-4.42C12.47,12.51,12.32,12.49,12.32,12.49Z"/><path class="cls-2" d="M11.94,4h0a1.19,1.19,0,0,0-1.18,1.13,1.08,1.08,0,0,0,.22.73c.19.25.35.33.36.7,0,.17,0,.34,0,.52l0,1.95a.12.12,0,0,0,.11.13h.87A.13.13,0,0,0,12.5,9l0-1.77c0-.26,0-.53,0-.8A.64.64,0,0,1,12.79,6a1,1,0,0,0,.33-.81A1.18,1.18,0,0,0,11.94,4Z"/><path class="cls-2" d="M12.27,20.68l-.65-.25a0,0,0,0,0-.07.05l.08,3.89a.53.53,0,0,0,.1.27l.21.26h0l0,0,0,0h0l.18.19s.08.05.08-.08l.09-4.27C12.34,20.69,12.27,20.68,12.27,20.68Z"/><path class="cls-2" d="M12.18,27.7l-.24-.17h0l-.23-.18s-.06-.05-.06,0l0,1.38a.28.28,0,0,0,.27.27h0a.28.28,0,0,0,.28-.27l0-.95C12.24,27.73,12.21,27.72,12.18,27.7Z"/><path class="cls-1" d="M23.12,16.91l-.53-.53A2,2,0,0,1,22,15V3a3,3,0,0,0-3-3H3A3,3,0,0,0,0,3V29a3,3,0,0,0,3,3H21a3,3,0,0,0,3-3V19A3,3,0,0,0,23.12,16.91ZM23,29a2,2,0,0,1-2,2H3a2,2,0,0,1-2-2V3A2,2,0,0,1,3,1H19a2,2,0,0,1,2,2V15a3,3,0,0,0,.88,2.12l.53.54A2,2,0,0,1,23,19Z"/></g></g></svg>