<svg xmlns="http://www.w3.org/2000/svg" viewBox="0 0 28 28"><defs><style>.cls-1{fill:none;}.cls-2{fill:#007fff;}</style></defs><title>PRINT ON</title><g id="Layer_2" data-name="Layer 2"><g id="Layer_3" data-name="Layer 3"><rect class="cls-1" x="6" y="1" width="16" height="7"/><path class="cls-2" d="M26.5,8H23V0H5V8H1.5A1.5,1.5,0,0,0,0,9.5v11A1.5,1.5,0,0,0,1.5,22H5v6H23V22h3.5A1.5,1.5,0,0,0,28,20.5V9.5A1.5,1.5,0,0,0,26.5,8ZM27,20.5a.5.5,0,0,1-.5.5H23V17h.5a.5.5,0,0,0,0-1H4.5a.5.5,0,0,0,0,1H5v4H1.5a.5.5,0,0,1-.5-.5V9.5A.5.5,0,0,1,1.5,9h25a.5.5,0,0,1,.5.5ZM22,27H6V17H22ZM6,1H22V8H6Z"/><circle class="cls-2" cx="23.75" cy="11.75" r="1.25"/><path class="cls-2" d="M19.5,18H8.5a.5.5,0,0,0,0,1h11a.5.5,0,0,0,0-1Z"/><path class="cls-2" d="M19.5,21H8.5a.5.5,0,0,0,0,1h11a.5.5,0,0,0,0-1Z"/><path class="cls-2" d="M14.5,24h-6a.5.5,0,0,0,0,1h6a.5.5,0,0,0,0-1Z"/></g></g></svg>