<svg xmlns="http://www.w3.org/2000/svg" viewBox="0 0 32 30.5"><defs><style>.cls-1{fill:#007fff;}.cls-2{fill:#f59220;}</style></defs><title>PROFILE INFORMATION</title><g id="Layer_2" data-name="Layer 2"><g id="Layer_3" data-name="Layer 3"><path class="cls-1" d="M25.55,9.1a2,2,0,1,1-1.95,2,2,2,0,0,1,1.95-2m0-1a3,3,0,1,0,2.95,3,2.95,2.95,0,0,0-2.95-3Z"/><path class="cls-1" d="M25.5,16c3.19,0,5.5,1.89,5.5,4.5a.46.46,0,0,1-.39.5H29.53a12.87,12.87,0,0,0-5.07-4.93,7.08,7.08,0,0,1,1-.07m0-1a7.56,7.56,0,0,0-3.77.95A12.25,12.25,0,0,1,28.92,22h1.69A1.45,1.45,0,0,0,32,20.5c0-3.31-2.91-5.5-6.5-5.5Z"/><path class="cls-1" d="M6.55,9.1a2,2,0,1,1-1.95,2,2,2,0,0,1,2-2m0-1a3,3,0,1,0,3,3,2.95,2.95,0,0,0-2.95-3Z"/><path class="cls-1" d="M6.5,16a7.08,7.08,0,0,1,1,.07A12.87,12.87,0,0,0,2.47,21H1.39A.46.46,0,0,1,1,20.5C1,17.89,3.31,16,6.5,16m0-1C2.91,15,0,17.19,0,20.5A1.45,1.45,0,0,0,1.39,22H3.08A12.25,12.25,0,0,1,10.27,16,7.56,7.56,0,0,0,6.5,15Z"/><path class="cls-1" d="M16,1a5.5,5.5,0,1,1-5.5,5.5A5.51,5.51,0,0,1,16,1m0-1a6.5,6.5,0,1,0,6.5,6.5A6.5,6.5,0,0,0,16,0Z"/><polygon class="cls-2" points="17 22.02 17 19.13 15 19.13 15 22.02 12.12 22.02 12.12 24.02 15 24.02 15 26.9 17 26.9 17 24.02 19.88 24.02 19.88 22.02 17 22.02"/><path class="cls-1" d="M27,30.5H5a3.62,3.62,0,0,1-3.5-3.71,11.35,11.35,0,0,1,1.13-5,12.81,12.81,0,0,1,7.48-6.3,18.28,18.28,0,0,1,11.78,0,12.81,12.81,0,0,1,7.48,6.3h0a11.35,11.35,0,0,1,1.13,5A3.62,3.62,0,0,1,27,30.5Zm-11-15a16.76,16.76,0,0,0-5.56.92,11.8,11.8,0,0,0-6.91,5.8,10.38,10.38,0,0,0-1,4.57A2.62,2.62,0,0,0,5,29.5H27a2.62,2.62,0,0,0,2.5-2.71,10.38,10.38,0,0,0-1-4.57,11.8,11.8,0,0,0-6.91-5.8A16.76,16.76,0,0,0,16,15.5Z"/></g></g></svg>