<svg xmlns="http://www.w3.org/2000/svg" viewBox="0 0 32 30"><defs><style>.cls-1{fill:#007fff;}.cls-2{fill:#f59220;}</style></defs><title>PROFILE INFORMATION B_1</title><g id="Layer_2" data-name="Layer 2"><g id="Layer_3" data-name="Layer 3"><path class="cls-1" d="M25.55,14a2.95,2.95,0,1,0-2.95-2.95A2.95,2.95,0,0,0,25.55,14Zm0-4.9a2,2,0,1,1-1.95,2A2,2,0,0,1,25.55,9.1Z"/><path class="cls-1" d="M25.5,15a7.56,7.56,0,0,0-3.77.95,17.76,17.76,0,0,0-11.46,0A7.56,7.56,0,0,0,6.5,15C2.91,15,0,17.19,0,20.5A1.45,1.45,0,0,0,1.39,22H3.08A10.91,10.91,0,0,0,2,26.79,3.11,3.11,0,0,0,5,30H27a3.11,3.11,0,0,0,3-3.21A10.91,10.91,0,0,0,28.92,22h1.69A1.45,1.45,0,0,0,32,20.5C32,17.19,29.09,15,25.5,15Zm5.11,6H28.36A12.16,12.16,0,0,0,23,16.46,6.83,6.83,0,0,1,25.5,16c3.19,0,5.5,1.89,5.5,4.5A.46.46,0,0,1,30.61,21ZM27,29H5a2.12,2.12,0,0,1-2-2.21A9.75,9.75,0,0,1,4.23,22c.09-.17.18-.34.28-.5s.23-.33.35-.5a11.54,11.54,0,0,1,5.27-3.94l.58-.22.56-.17a17,17,0,0,1,9.46,0l.56.17.58.22A11.54,11.54,0,0,1,27.14,21c.12.17.24.33.35.5s.19.33.28.5A9.75,9.75,0,0,1,29,26.79,2.12,2.12,0,0,1,27,29ZM1,20.5C1,17.89,3.31,16,6.5,16a6.83,6.83,0,0,1,2.5.46A12.16,12.16,0,0,0,3.64,21H1.39A.46.46,0,0,1,1,20.5Z"/><path class="cls-1" d="M6.55,14A2.95,2.95,0,1,0,3.6,11.05,2.95,2.95,0,0,0,6.55,14Zm0-4.9a2,2,0,1,1-1.95,2A2,2,0,0,1,6.55,9.1Z"/><path class="cls-1" d="M16,13A6.5,6.5,0,1,0,9.5,6.5,6.5,6.5,0,0,0,16,13ZM16,1a5.5,5.5,0,1,1-5.5,5.5A5.51,5.51,0,0,1,16,1Z"/><polygon class="cls-2" points="17 22.02 17 19.13 15 19.13 15 22.02 12.12 22.02 12.12 24.02 15 24.02 15 26.9 17 26.9 17 24.02 19.88 24.02 19.88 22.02 17 22.02"/></g></g></svg>