<svg xmlns="http://www.w3.org/2000/svg" viewBox="0 0 28 30"><defs><style>.cls-1{fill:none;}.cls-2{fill:#007fff;}.cls-3{fill:#f59220;}</style></defs><title>PROFILE INFORMATION B</title><g id="Layer_2" data-name="Layer 2"><g id="Layer_3" data-name="Layer 3"><path class="cls-1" d="M14,26.05l4-9.44a.5.5,0,0,1,.08-.12,17.48,17.48,0,0,0-8.22,0,.29.29,0,0,1,.07.12Z"/><path class="cls-1" d="M8.79,24.68l.3-.58L7.4,22.33A1.88,1.88,0,0,1,7,20.48l1-3.36c-4.24,1.72-7,5.26-7,9.67A2.12,2.12,0,0,0,3,29h9.7L9.54,27.19A1.9,1.9,0,0,1,8.79,24.68Z"/><circle class="cls-1" cx="14" cy="6.5" r="5.5"/><path class="cls-1" d="M20,17.12l1,3.36a1.88,1.88,0,0,1-.45,1.85L18.91,24.1l.29.58a1.89,1.89,0,0,1-.74,2.51L15.3,29H25a2.12,2.12,0,0,0,2-2.21C27,22.38,24.28,18.84,20,17.12Z"/><path class="cls-2" d="M14,13A6.5,6.5,0,1,0,7.5,6.5,6.5,6.5,0,0,0,14,13ZM14,1A5.5,5.5,0,1,1,8.5,6.5,5.51,5.51,0,0,1,14,1Z"/><path class="cls-2" d="M14,15C6.27,15,0,19.68,0,26.79A3.11,3.11,0,0,0,3,30H25a3.11,3.11,0,0,0,3-3.21C28,19.68,21.73,15,14,15Zm4,9.49.33.65A.89.89,0,0,1,18,26.32l-3.1,1.77-.33-.77L19,17l1.14,3.76a.91.91,0,0,1-.21.88l-1.75,1.82A.91.91,0,0,0,18,24.49Zm-8.3.65.34-.65a.91.91,0,0,0-.15-1L8.12,21.64a.91.91,0,0,1-.21-.88L9.05,17l4.41,10.32.27.64.27.63-.44-.25-.43-.25L10,26.32A.9.9,0,0,1,9.68,25.14ZM14,16a17,17,0,0,1,4.11.49.5.5,0,0,0-.08.12l-4,9.44-4-9.44a.29.29,0,0,0-.07-.12A17,17,0,0,1,14,16ZM3,29a2.12,2.12,0,0,1-2-2.21c0-4.41,2.72-7.95,7-9.67L7,20.48a1.88,1.88,0,0,0,.45,1.85L9.09,24.1l-.3.58a1.9,1.9,0,0,0,.75,2.51L12.7,29Zm22,0H15.3l3.16-1.81a1.89,1.89,0,0,0,.74-2.51l-.29-.58,1.69-1.77a1.88,1.88,0,0,0,.45-1.85l-1-3.36c4.24,1.72,7,5.26,7,9.67A2.12,2.12,0,0,1,25,29Z"/><rect class="cls-3" x="20.5" y="23.5" width="4" height="2.5"/></g></g></svg>