<svg xmlns="http://www.w3.org/2000/svg" viewBox="0 0 28 28"><defs><style>.cls-1{fill:gray;}</style></defs><title>Real Time Ubication</title><g id="Layer_2" data-name="Layer 2"><g id="Layer_3" data-name="Layer 3"><path class="cls-1" d="M27.05,13h-2.6A10.49,10.49,0,0,0,15,3.55V1A.94.94,0,0,0,14.05,0H14A.94.94,0,0,0,13,1v2.6A10.5,10.5,0,0,0,3.55,13H1a1,1,0,0,0,0,2H3.55A10.5,10.5,0,0,0,13,24.45v2.6A.94.94,0,0,0,14,28h.1a.94.94,0,0,0,.95-.95v-2.6A10.49,10.49,0,0,0,24.45,15h2.6a.94.94,0,0,0,.95-.95V14A.94.94,0,0,0,27.05,13ZM14,23.5h0A9.5,9.5,0,1,1,23.5,14,9.51,9.51,0,0,1,14,23.5Z"/><path class="cls-1" d="M21,13.5H15.41a1.52,1.52,0,0,0-.91-.91V7a.5.5,0,0,0-1,0v5.57a1.5,1.5,0,1,0,1.91,1.91H21a.5.5,0,1,0,0-1Z"/></g></g></svg>