<svg xmlns="http://www.w3.org/2000/svg" viewBox="0 0 27.98 28"><defs><style>.cls-1{fill:#007fff;}</style></defs><title>Save</title><g id="Layer_2" data-name="Layer 2"><g id="Layer_3" data-name="Layer 3"><path class="cls-1" d="M20.5,12H7.5A1.5,1.5,0,0,1,6,10.5v-7A1.5,1.5,0,0,1,7.5,2h13A1.5,1.5,0,0,1,22,3.5v7A1.5,1.5,0,0,1,20.5,12ZM7.5,3a.5.5,0,0,0-.5.5v7a.5.5,0,0,0,.5.5h13a.5.5,0,0,0,.5-.5v-7a.5.5,0,0,0-.5-.5Z"/><rect class="cls-1" x="17" y="3.5" width="2" height="7" rx="1" ry="1"/><path class="cls-1" d="M23,25.5H5A1.5,1.5,0,0,1,3.5,24V15.5A1.5,1.5,0,0,1,5,14H23a1.5,1.5,0,0,1,1.5,1.5V24A1.5,1.5,0,0,1,23,25.5ZM5,15a.5.5,0,0,0-.5.5V24a.5.5,0,0,0,.5.5H23a.5.5,0,0,0,.5-.5V15.5A.5.5,0,0,0,23,15Z"/><path class="cls-1" d="M21.57,1A2,2,0,0,1,23,1.59L26.4,5A2,2,0,0,1,27,6.42V25a2,2,0,0,1-2,2H3a2,2,0,0,1-2-2V3A2,2,0,0,1,3,1H21.57m0-1H3A3,3,0,0,0,0,3V25a3,3,0,0,0,3,3H25a3,3,0,0,0,3-3V6.42a3,3,0,0,0-.87-2.11L23.69.88A3,3,0,0,0,21.57,0Z"/></g></g></svg>