<svg xmlns="http://www.w3.org/2000/svg" viewBox="0 0 23.46 23.46"><defs><style>.cls-1{fill:gray;}</style></defs><title>Set a point</title><g id="Layer_2" data-name="Layer 2"><g id="Layer_3" data-name="Layer 3"><path class="cls-1" d="M11.73,17.57a5.84,5.84,0,1,1,5.84-5.84A5.84,5.84,0,0,1,11.73,17.57Zm0-10.67a4.84,4.84,0,1,0,4.84,4.83A4.84,4.84,0,0,0,11.73,6.9Z"/><path class="cls-1" d="M11.73,23.46A11.73,11.73,0,1,1,23.46,11.73,11.74,11.74,0,0,1,11.73,23.46ZM11.73,1A10.73,10.73,0,1,0,22.46,11.73,10.74,10.74,0,0,0,11.73,1Z"/></g></g></svg>