<svg xmlns="http://www.w3.org/2000/svg" viewBox="0 0 27.91 27.91"><defs><style>.cls-1{fill:#007fff;}</style></defs><title>SHARE ON</title><g id="Layer_2" data-name="Layer 2"><g id="Layer_3" data-name="Layer 3"><path class="cls-1" d="M22.93,18a5,5,0,0,0-4.13,2.21L9.66,15.6A4.84,4.84,0,0,0,10,14a5.1,5.1,0,0,0-.3-1.67L18.8,7.74A5,5,0,1,0,18,5a4.91,4.91,0,0,0,.3,1.63L9.09,11.19a5,5,0,1,0,0,5.54l9.13,4.56A5,5,0,1,0,22.93,18ZM19,5a4,4,0,1,1,.76,2.31,3.85,3.85,0,0,1-.56-1.13A4.23,4.23,0,0,1,19,5ZM5,18a4,4,0,1,1,3.2-6.31,3.92,3.92,0,0,1,.56,1.12A3.81,3.81,0,0,1,9,14a4.2,4.2,0,0,1-.74,2.3A4,4,0,0,1,5,18Zm18,9a4,4,0,0,1-4-4,4.24,4.24,0,0,1,.2-1.19A4,4,0,0,1,22.93,19a4,4,0,0,1,0,8Z"/></g></g></svg>