<svg xmlns="http://www.w3.org/2000/svg" viewBox="0 0 25.99 25.99"><defs><style>.cls-1{fill:none;}.cls-2{fill:#007fff;}.cls-3{fill:#f59220;}</style></defs><title>SIGNATURE</title><g id="Layer_2" data-name="Layer 2"><g id="Layer_3" data-name="Layer 3"><polygon class="cls-1" points="13.82 12.18 13.82 12.18 13.82 12.18 13.82 12.18 13.82 12.18"/><path class="cls-1" d="M19.1,1.24,15.23,5.11l5.66,5.65L24.75,6.9A15.24,15.24,0,0,0,19.1,1.24Z"/><path class="cls-2" d="M25.81,6.74A16.35,16.35,0,0,0,19.25.18L18.92,0l-5.1,5.11,7.07,7.07L26,7.07Zm-4.92,4L15.23,5.11,19.1,1.24A15.24,15.24,0,0,1,24.75,6.9Z"/><path class="cls-2" d="M13.46,8.29,12.4,9.35l-.58-.58L4.58,11.44,0,26l7.45-7.45h0L0,26l14.55-4.57,2.68-7.25-.58-.58,1.06-1.06Zm.36,3.89.35.35L15.58,14h0l.49.48-2.28,6.18L3.59,23.82,8.31,19.1a2.58,2.58,0,0,0,.91.17,2.07,2.07,0,0,0,.35,0,2.46,2.46,0,0,0,1.42-.7h0a2.53,2.53,0,0,0,.56-2.68,3.33,3.33,0,0,0-.24-.46A2.37,2.37,0,0,0,11,15h0a2,2,0,0,0-.39-.32,2.32,2.32,0,0,0-.47-.24,2.52,2.52,0,0,0-1.27-.14,2.45,2.45,0,0,0-2.1,2.1v0a2.43,2.43,0,0,0,.14,1.25L2.18,22.4l3.2-10.19,6.19-2.28.13.13h0l1.41,1.41.35.35.36.36ZM8.16,17.83a1.29,1.29,0,0,1-.28-.42,1.26,1.26,0,0,1-.14-.57,1.49,1.49,0,0,1,.42-1.13,1.51,1.51,0,0,1,1.06-.44l.07,0a1.59,1.59,0,0,1,.57.14,1.47,1.47,0,0,1,.42.28h0a1.44,1.44,0,0,1,.28.43,1.42,1.42,0,0,1,.15.56,1.48,1.48,0,0,1-.43,1.13,1.44,1.44,0,0,1-1.13.43,1.58,1.58,0,0,1-1-.43Z"/><rect class="cls-3" x="17.77" y="11.68" width="2" height="1" transform="translate(-3.11 16.84) rotate(-45)"/><rect class="cls-3" x="12.82" y="6.73" width="2" height="1" transform="translate(-1.06 11.89) rotate(-45)"/><rect class="cls-3" x="15.29" y="6.7" width="2" height="6" transform="translate(-2.09 14.36) rotate(-45)"/></g></g></svg>