<svg xmlns="http://www.w3.org/2000/svg" viewBox="0 0 23.23 27.41"><defs><style>.cls-1{fill:gray;}</style></defs><title>Song</title><g id="Layer_2" data-name="Layer 2"><g id="Layer_3" data-name="Layer 3"><path class="cls-1" d="M4.26,27.41a5.18,5.18,0,0,1-2-.39A3.51,3.51,0,0,1,.11,24.7c-.55-2.05,1-4.21,3.67-5a7.56,7.56,0,0,1,1.7-.23,5.82,5.82,0,0,0,.87-.1,1.42,1.42,0,0,0,.07-.6c0-1.71,0-3.34,0-5,0-2.94,0-5.84,0-8.9A1.6,1.6,0,0,1,7.64,3.33C11.73,2.33,18.43.72,21.27.05a1.57,1.57,0,0,1,1.95,1.54V20.37a5.75,5.75,0,0,1-.35,1.86,5.4,5.4,0,0,1-3.51,2.87,5.7,5.7,0,0,1-2.78.06A4.31,4.31,0,0,1,14.46,24a3.75,3.75,0,0,1-.79-1.39c-.55-2.08,1.1-4.33,3.69-5A19.4,19.4,0,0,1,20,17.35s0-.12,0-.24c0-.61,0-3.27,0-5.75V8.13a.58.58,0,0,0-.22-.46.55.55,0,0,0-.51-.11l-9.27,2.2a.59.59,0,0,0-.45.57V22a6.18,6.18,0,0,1-.33,2.43A5.24,5.24,0,0,1,5.81,27.2,6,6,0,0,1,4.26,27.41ZM21.64,1,21.5,1C18.66,1.7,12,3.3,7.87,4.3a.6.6,0,0,0-.44.58c0,3.06,0,6,0,8.92,0,1.62,0,3.25,0,4.94,0,.58,0,1.27-.71,1.55a4.21,4.21,0,0,1-1.17.16,6.86,6.86,0,0,0-1.47.2c-2.08.63-3.4,2.3-3,3.79A2.53,2.53,0,0,0,2.64,26.1a4.56,4.56,0,0,0,2.91.14A4.26,4.26,0,0,0,8.36,24a5.36,5.36,0,0,0,.24-2V10.33A1.58,1.58,0,0,1,9.82,8.79l9.27-2.21a1.62,1.62,0,0,1,1.36.3,1.59,1.59,0,0,1,.6,1.25v3.23c0,2.47,0,5.13,0,5.73a1.36,1.36,0,0,1-.31,1,.93.93,0,0,1-.67.24,17.57,17.57,0,0,0-2.45.2c-2.06.55-3.39,2.25-3,3.79a2.59,2.59,0,0,0,.53.95,3.58,3.58,0,0,0,1.6.89,4.8,4.8,0,0,0,2.35-.05A4.33,4.33,0,0,0,22,21.81a5,5,0,0,0,.26-1.43V1.58A.54.54,0,0,0,22,1.13.53.53,0,0,0,21.64,1Z"/></g></g></svg>