<svg xmlns="http://www.w3.org/2000/svg" viewBox="0 0 28 28"><defs><style>.cls-1{fill:gray;}</style></defs><title>Asset 145</title><g id="Layer_2" data-name="Layer 2"><g id="Layer_3" data-name="Layer 3"><path class="cls-1" d="M27.05,13h-2.6A10.49,10.49,0,0,0,15,3.55V1A.94.94,0,0,0,14.05,0H14A.94.94,0,0,0,13,1v2.6A10.5,10.5,0,0,0,3.55,13H1a1,1,0,0,0,0,2H3.55A10.5,10.5,0,0,0,13,24.45s0,0,0,.05V27a1,1,0,0,0,2,0V24.5s0,0,0-.05A10.5,10.5,0,0,0,24.45,15h2.6a.94.94,0,0,0,.95-.95V14A.94.94,0,0,0,27.05,13ZM14,23.5A9.5,9.5,0,1,1,23.5,14,9.51,9.51,0,0,1,14,23.5Z"/><path class="cls-1" d="M14,19a5,5,0,1,1,5-5A5,5,0,0,1,14,19Zm0-9a4,4,0,1,0,4,4A4,4,0,0,0,14,10Z"/></g></g></svg>