<svg xmlns="http://www.w3.org/2000/svg" viewBox="0 0 28 28"><defs><style>.cls-1{fill:#a0a0a0;}</style></defs><title>VERSION OFF</title><g id="Layer_2" data-name="Layer 2"><g id="Layer_3" data-name="Layer 3"><path class="cls-1" d="M28,7H0V3A3,3,0,0,1,3,0H25a3,3,0,0,1,3,3ZM1,6H27V3a2,2,0,0,0-2-2H3A2,2,0,0,0,1,3Z"/><path class="cls-1" d="M25,28H3a3,3,0,0,1-3-3V8.5H28V25A3,3,0,0,1,25,28ZM1,9.5V25a2,2,0,0,0,2,2H25a2,2,0,0,0,2-2V9.5Zm17,7H10A1.5,1.5,0,0,1,8.5,15V13A1.5,1.5,0,0,1,10,11.5h8A1.5,1.5,0,0,1,19.5,13v2A1.5,1.5,0,0,1,18,16.5Zm-8-4a.5.5,0,0,0-.5.5v2a.5.5,0,0,0,.5.5h8a.5.5,0,0,0,.5-.5V13a.5.5,0,0,0-.5-.5Z"/></g></g></svg>