<svg xmlns="http://www.w3.org/2000/svg" viewBox="0 0 24 30"><defs><style>.cls-1{fill:#fff;}.cls-2{fill:#e5e5e5;}.cls-3{fill:#67d2aa;}</style></defs><title>XLS</title><g id="Layer_2" data-name="Layer 2"><g id="Layer_3" data-name="Layer 3"><path class="cls-1" d="M2.18,29.5A1.68,1.68,0,0,1,.5,27.82V2.18A1.68,1.68,0,0,1,2.18.5H12.62A1.65,1.65,0,0,1,13.81,1l9.2,9.2a1.65,1.65,0,0,1,.49,1.19V27.82a1.68,1.68,0,0,1-1.68,1.68Z"/><path class="cls-2" d="M12.62,1a1.21,1.21,0,0,1,.84.35l9.19,9.19a1.15,1.15,0,0,1,.35.84V27.82A1.18,1.18,0,0,1,21.82,29H2.18A1.18,1.18,0,0,1,1,27.82V2.18A1.18,1.18,0,0,1,2.18,1H12.62m0-1H2.18A2.19,2.19,0,0,0,0,2.18V27.82A2.19,2.19,0,0,0,2.18,30H21.82A2.19,2.19,0,0,0,24,27.82V11.38a2.2,2.2,0,0,0-.64-1.55L14.17.64A2.2,2.2,0,0,0,12.62,0Z"/><path class="cls-3" d="M10.22,20.1h-.8a.2.2,0,0,1-.14-.05.31.31,0,0,1-.09-.11L7.6,17.44a1.38,1.38,0,0,1-.08.17L6,19.94l-.09.11a.19.19,0,0,1-.13.05H5L7.05,17l-2-2.9h.8a.23.23,0,0,1,.13,0l.08.08,1.55,2.39a1.07,1.07,0,0,1,.09-.19L9.2,14.27a.22.22,0,0,1,.07-.09.15.15,0,0,1,.11,0h.77L8.18,17Z"/><path class="cls-3" d="M14.45,19.42v.68H11.07v-6h.8v5.28Z"/><path class="cls-3" d="M18.38,15.07a.39.39,0,0,1-.08.1.17.17,0,0,1-.1,0,.34.34,0,0,1-.17-.07L17.79,15a1.8,1.8,0,0,0-.34-.16,1.75,1.75,0,0,0-.49-.07,1.42,1.42,0,0,0-.48.08.94.94,0,0,0-.34.19.69.69,0,0,0-.21.3.86.86,0,0,0-.07.36.66.66,0,0,0,.12.41,1,1,0,0,0,.32.28,2.78,2.78,0,0,0,.46.21l.53.17c.17.06.35.13.52.21a1.7,1.7,0,0,1,.46.29,1.34,1.34,0,0,1,.32.42,1.48,1.48,0,0,1,.12.63,2,2,0,0,1-.13.73,1.73,1.73,0,0,1-.39.6,1.84,1.84,0,0,1-.63.4,2.47,2.47,0,0,1-.84.14,2.5,2.5,0,0,1-1.87-.78l.23-.38.08-.07a.25.25,0,0,1,.11,0,.21.21,0,0,1,.12.05l.16.11.2.14a1.5,1.5,0,0,0,.25.15,2.55,2.55,0,0,0,.33.11,1.73,1.73,0,0,0,.41,0,1.37,1.37,0,0,0,.51-.08,1,1,0,0,0,.38-.22.81.81,0,0,0,.24-.34A1.06,1.06,0,0,0,18,18.4a.76.76,0,0,0-.13-.44,1.12,1.12,0,0,0-.32-.29,2.45,2.45,0,0,0-.46-.19l-.52-.17a4.65,4.65,0,0,1-.52-.2,1.44,1.44,0,0,1-.46-.29,1.36,1.36,0,0,1-.32-.45,1.44,1.44,0,0,1-.13-.66,1.46,1.46,0,0,1,.13-.61,1.54,1.54,0,0,1,.35-.52,1.65,1.65,0,0,1,.58-.37,2.14,2.14,0,0,1,.79-.14,2.67,2.67,0,0,1,.91.16,2.27,2.27,0,0,1,.72.46Z"/></g></g></svg>