<svg xmlns="http://www.w3.org/2000/svg" viewBox="-2318 74 21.16 22">
  <defs>
    <style>
      .cls-1 {
        fill: #5e5d5d;
      }
    </style>
  </defs>
  <g id="Event" transform="translate(-2318 74)">
    <g id="Group_1321" data-name="Group 1321">
      <path id="Path_550" data-name="Path 550" class="cls-1" d="M17.646,2.063v-.84A1.207,1.207,0,0,0,16.424,0h-.611A1.207,1.207,0,0,0,14.59,1.222v.84H6.722v-.84A1.207,1.207,0,0,0,5.5,0H4.889A1.207,1.207,0,0,0,3.667,1.222v.84H0V22H21.16V2.063Zm-13.215,0v-.84A.44.44,0,0,1,4.889.764H5.5a.493.493,0,0,1,.458.458v2.6a.493.493,0,0,1-.458.458H4.889a.44.44,0,0,1-.458-.458V2.063Zm.458,2.979H5.5A1.207,1.207,0,0,0,6.722,3.819V2.75H14.59V3.819a1.207,1.207,0,0,0,1.222,1.222h.611a1.207,1.207,0,0,0,1.222-1.222V2.75H20.4V6.264H.764V2.75h2.9V3.819A1.207,1.207,0,0,0,4.889,5.042ZM15.354,2.063v-.84a.493.493,0,0,1,.458-.458h.611a.493.493,0,0,1,.458.458v2.6a.493.493,0,0,1-.458.458h-.611a.493.493,0,0,1-.458-.458V2.063ZM20.4,21.236H.764V7.1H20.4Z"/>
      <path id="Path_551" data-name="Path 551" class="cls-1" d="M18.785,13H4.5v8.938H18.785Zm-13.521.764H9.007v3.285H5.264Zm12.757,3.285H14.278V13.764h3.743Zm-4.507,0H9.771V13.764h3.743Zm-8.25.764H9.007V21.1H5.264Zm4.507,0h3.743V21.1H9.771Z" transform="translate(-1.063 -3.069)"/>
    </g>
  </g>
</svg>
